<svg xmlns="http://www.w3.org/2000/svg" viewBox="0 0 1280 740" width="1280" height="740" font-family="Inter, 'Helvetica Neue', Helvetica, Arial, sans-serif">
<rect width="1280" height="740" fill="none"/>
<text x="257" y="56" font-size="22" fill="#1c1c1e" text-anchor="middle" font-weight="700">Getting Slower</text>
<text x="622" y="56" font-size="22" fill="#1c1c1e" text-anchor="middle" font-weight="700">Getting Faster</text>
<text x="257" y="78" font-size="14" fill="#8e8e93" text-anchor="middle">speed decreasing</text>
<text x="622" y="78" font-size="14" fill="#8e8e93" text-anchor="middle">speed increasing</text>
<rect x="75" y="92" width="730" height="600" fill="none" stroke="#1c1c1e" stroke-width="2"/>
<line x1="440" y1="92" x2="440" y2="692" stroke="#1c1c1e" stroke-width="2"/>
<line x1="75" y1="392" x2="805" y2="392" stroke="#1c1c1e" stroke-width="2"/>
<text transform="translate(40,242) rotate(-90)" font-size="20" fill="#1c1c1e" text-anchor="middle" font-weight="700">Negative Acceleration</text>
<text transform="translate(62,242) rotate(-90)" font-size="15" fill="#8e8e93" text-anchor="middle">a &lt; 0</text>
<text transform="translate(40,542) rotate(-90)" font-size="20" fill="#1c1c1e" text-anchor="middle" font-weight="700">Positive Acceleration</text>
<text transform="translate(62,542) rotate(-90)" font-size="15" fill="#8e8e93" text-anchor="middle">a &gt; 0</text>
<line x1="140.0" y1="138.0" x2="140.0" y2="366.0" stroke="#1c1c1e" stroke-width="2.5"/>
<line x1="130.0" y1="356.0" x2="412.0" y2="356.0" stroke="#1c1c1e" stroke-width="2.5"/>
<text x="124.0" y="136.0" font-size="16" fill="#48484a" text-anchor="middle">x</text>
<text x="418.0" y="362.0" font-size="16" fill="#48484a" text-anchor="start">t</text>
<path d="M 140.0,356.0 Q 170.0,156.0 390.0,186.0" fill="none" stroke="#1c1c1e" stroke-width="4.5" stroke-linecap="round"/>
<line x1="505.0" y1="138.0" x2="505.0" y2="366.0" stroke="#1c1c1e" stroke-width="2.5"/>
<line x1="495.0" y1="356.0" x2="777.0" y2="356.0" stroke="#1c1c1e" stroke-width="2.5"/>
<text x="489.0" y="136.0" font-size="16" fill="#48484a" text-anchor="middle">x</text>
<text x="783.0" y="362.0" font-size="16" fill="#48484a" text-anchor="start">t</text>
<path d="M 505.0,186.0 Q 700.0,172.0 755.0,356.0" fill="none" stroke="#1c1c1e" stroke-width="4.5" stroke-linecap="round"/>
<line x1="140.0" y1="438.0" x2="140.0" y2="666.0" stroke="#1c1c1e" stroke-width="2.5"/>
<line x1="130.0" y1="656.0" x2="412.0" y2="656.0" stroke="#1c1c1e" stroke-width="2.5"/>
<text x="124.0" y="436.0" font-size="16" fill="#48484a" text-anchor="middle">x</text>
<text x="418.0" y="662.0" font-size="16" fill="#48484a" text-anchor="start">t</text>
<path d="M 140.0,486.0 Q 190.0,652.0 390.0,646.0" fill="none" stroke="#1c1c1e" stroke-width="4.5" stroke-linecap="round"/>
<line x1="505.0" y1="438.0" x2="505.0" y2="666.0" stroke="#1c1c1e" stroke-width="2.5"/>
<line x1="495.0" y1="656.0" x2="777.0" y2="656.0" stroke="#1c1c1e" stroke-width="2.5"/>
<text x="489.0" y="436.0" font-size="16" fill="#48484a" text-anchor="middle">x</text>
<text x="783.0" y="662.0" font-size="16" fill="#48484a" text-anchor="start">t</text>
<path d="M 505.0,646.0 Q 705.0,652.0 755.0,476.0" fill="none" stroke="#1c1c1e" stroke-width="4.5" stroke-linecap="round"/>
<text x="1060" y="56" font-size="20" fill="#1c1c1e" text-anchor="middle" font-weight="700">The velocity graph behind each row</text>
<text x="1060" y="78" font-size="14" fill="#8e8e93" text-anchor="middle">the dashed line is where it turns around</text>
<polygon points="890.0,232.0 890.0,140.0 1060.0,232.0" fill="#d63031" fill-opacity="0.15"/>
<polygon points="1060.0,232.0 1230.0,324.0 1230.0,232.0" fill="#2980b9" fill-opacity="0.15"/>
<line x1="880" y1="112.0" x2="880" y2="352.0" stroke="#1c1c1e" stroke-width="2.5"/>
<line x1="872" y1="232.0" x2="1252" y2="232.0" stroke="#1c1c1e" stroke-width="2.5"/>
<text x="862" y="109.0" font-size="16" fill="#48484a" text-anchor="middle">v</text>
<text x="1260" y="238.0" font-size="16" fill="#48484a" text-anchor="start">t</text>
<line x1="1060.0" y1="117.0" x2="1060.0" y2="347.0" stroke="#8e8e93" stroke-width="2" stroke-dasharray="7 6"/>
<polyline points="890.0,140.0 1230.0,324.0" fill="none" stroke="#1c1c1e" stroke-width="4.5" stroke-linecap="round"/>
<text x="975" y="374.0" font-size="14" fill="#8e8e93" text-anchor="middle">getting slower</text>
<text x="1145" y="374.0" font-size="14" fill="#8e8e93" text-anchor="middle">getting faster</text>
<polygon points="890.0,532.0 890.0,624.0 1060.0,532.0" fill="#2980b9" fill-opacity="0.15"/>
<polygon points="1060.0,532.0 1230.0,440.0 1230.0,532.0" fill="#d63031" fill-opacity="0.15"/>
<line x1="880" y1="412.0" x2="880" y2="652.0" stroke="#1c1c1e" stroke-width="2.5"/>
<line x1="872" y1="532.0" x2="1252" y2="532.0" stroke="#1c1c1e" stroke-width="2.5"/>
<text x="862" y="409.0" font-size="16" fill="#48484a" text-anchor="middle">v</text>
<text x="1260" y="538.0" font-size="16" fill="#48484a" text-anchor="start">t</text>
<line x1="1060.0" y1="417.0" x2="1060.0" y2="647.0" stroke="#8e8e93" stroke-width="2" stroke-dasharray="7 6"/>
<polyline points="890.0,624.0 1230.0,440.0" fill="none" stroke="#1c1c1e" stroke-width="4.5" stroke-linecap="round"/>
<text x="975" y="674.0" font-size="14" fill="#8e8e93" text-anchor="middle">getting slower</text>
<text x="1145" y="674.0" font-size="14" fill="#8e8e93" text-anchor="middle">getting faster</text>
<text x="1060" y="726" font-size="15" fill="#1c1c1e" text-anchor="middle" font-weight="700">One straight velocity line covers both cells in its row.</text>
<text x="440" y="726" font-size="15" fill="#48484a" text-anchor="middle">Curve bends the way the acceleration points.</text>
</svg>
