<svg id="Layer_1" data-name="Layer 1" xmlns="http://www.w3.org/2000/svg" viewBox="0 0 180 133.53"><defs><style>.cls-1{fill:#fff;}.cls-2{fill:#1d4387;}.cls-3{fill:#a2a9ad;}.cls-4{fill:#ce202f;}</style></defs><path class="cls-1" d="M152.9,65.34h-5.84l-7.91-5.68-5.34.77c-.13-.14-.25-.29-.39-.42a8,8,0,0,0-5-2.14,8.09,8.09,0,0,0-4-1.26,8.24,8.24,0,0,0-3.88,1.08,3.46,3.46,0,0,1-.14-1.14,1,1,0,0,0,.47.47,1.07,1.07,0,0,0,1,0A17.65,17.65,0,0,0,128,51l.32.21a1.08,1.08,0,0,0,1.62-.92s0-1.16.16-2.62c.25.26.4.44.41.44a1,1,0,0,0,.82.38,1,1,0,0,0,.82-.39c.14-.17,3.35-4.15,3.35-8.63,0-.16,0-.34,0-.54a1,1,0,0,0,.73-.58,12.28,12.28,0,0,0,1.11-4.64,16.87,16.87,0,0,0-1.11-5.52l0-.06c-.36-1.1-.92-2.95-1.24-4a4.25,4.25,0,0,0,1.11-.88,1.06,1.06,0,0,0-.41-1.7,3.47,3.47,0,0,1-.87-.56c.77-1.67,2.34-5.28,2.34-6.88a12.07,12.07,0,0,0-2-5.68c-.78-1.23-2.29-3.28-3.65-3.28-.86,0-1.74.62-3.24,1.72a12,12,0,0,1-3.32,2c-1.18.27-5-.42-7.66-1C115.55,6.06,113.28,4,110.75,4a25,25,0,0,0-6.65,1.59c-4.27-3.53-4.34-3.53-4.86-3.53-.22,0-.82,0-2.32,1.67a15.18,15.18,0,0,0-3,5,44,44,0,0,0-12.17,5.66,1.12,1.12,0,0,0-1.09.1,27.89,27.89,0,0,1-5.15,2.78c-1.16.28-2.56.51-4.18.77A54.48,54.48,0,0,0,60.17,20.7,3.83,3.83,0,0,0,59,20.24l-.12,0a3.79,3.79,0,0,1-2.2-1.29,6.64,6.64,0,0,0-1.76-1.3c-.31-.14-.69-.29-1.1-.45-1.07-.42-2.87-1.12-3.26-1.78a6,6,0,0,1-.34-.71,12.34,12.34,0,0,0-.68-1.39,11.4,11.4,0,0,0-1.28-1.66,10.11,10.11,0,0,1-.74-.92c-.09-.21-.27-1.05-.42-1.73A28.75,28.75,0,0,0,46,4.93,8.41,8.41,0,0,0,39.55,0a1.15,1.15,0,0,0-1.11.52,11.43,11.43,0,0,0-1.55,6.85h-.14a1.12,1.12,0,0,0-1.26,1.26,5.8,5.8,0,0,0,.74,2,1.12,1.12,0,0,0-.29,1,6.36,6.36,0,0,0,1,2.16,1.19,1.19,0,0,0-.65.62,1.14,1.14,0,0,0,.14,1.13,1.16,1.16,0,0,0-.05,1.18,7.3,7.3,0,0,0,2.17,2.51,1.07,1.07,0,0,0-.1.5,1.17,1.17,0,0,0,.36.81,3.69,3.69,0,0,0,.93.6l-.08.06a1.14,1.14,0,0,0,0,1.85,7.85,7.85,0,0,0,1.56.87,1.17,1.17,0,0,0-.18.39,1.13,1.13,0,0,0,.32,1.07,10.92,10.92,0,0,0,3.77,2.42,1.1,1.1,0,0,0-.14.59,1.13,1.13,0,0,0,.75,1,10.35,10.35,0,0,0,2.19.52c-1.81,2.48-3.45,6.37-3.45,9.32,0,.93.15,2.63.3,4.28.13,1.46.26,3,.26,3.66,0,1-.76,2.75-4.41,5.51l-.3.23c-1.06.87-1.43,3.86-1.22,5.53a54,54,0,0,0,3.3,9.66l-10.9,2.61-4-1.41L7.31,74.61,0,115.1H11.83L8.9,131.39,14,132a289.76,289.76,0,0,0,31.63,1.58c14.3,0,28.76-.8,42.75-1.56s28.18-1.55,42.22-1.55h0c10.32,0,19.57.42,28.26,1.28l4.41.44,3.06-17h6.37L180,74.78ZM64.13,69.42v0a4.92,4.92,0,0,0-2.36-3.31,3.67,3.67,0,0,0-3.39-2.18,4.21,4.21,0,0,0-1.16.18,5.13,5.13,0,0,0-3.49-1.32,7.21,7.21,0,0,0-1.4.14c-.16-.68-.35-1.49-.51-2.15,2.62-.5,8.44-2.66,15.29-11.83a12.38,12.38,0,0,1,2.27,2.77l.2.3c-2.9,4.1-4.47,6.59-4.47,7.94,0,2.57,1.07,4.78,2.21,7.11l0,.09c.18.36.36.77.56,1.21s.43,1,.67,1.46l-2.35.33Z"/><path class="cls-2" d="M152.7,66.52h-6l-7.84-5.62-5.49.79A6.68,6.68,0,0,0,128,59a7.16,7.16,0,0,0-3.62-1.26A7.83,7.83,0,0,0,120,59.41a6.29,6.29,0,0,1-.71-3.08,3.77,3.77,0,0,1,.46-1.2,2.1,2.1,0,0,1,.33-.34.59.59,0,0,1,.26-.07c.84,0,1,1.34,1,1.34s4.51-2.5,6.27-6.77a5.59,5.59,0,0,0,1.23,1,27.07,27.07,0,0,1,.47-4.68,11.28,11.28,0,0,1,2,1.81s3.1-3.8,3.1-7.95a12.37,12.37,0,0,0-.24-2.73,3.62,3.62,0,0,1,1.07,1.15,11.32,11.32,0,0,0,1-4.18,16.14,16.14,0,0,0-1.07-5.25c-.56-1.66-1.52-5-1.52-5a3.83,3.83,0,0,0,1.6-1,6.16,6.16,0,0,1-1.78-1.29s2.58-5.39,2.58-7.14c0-3.1-3.46-7.89-4.62-7.89s-4.22,3.21-6.33,3.68c-1.7.38-6.72-.72-8.56-1.14-1.55-1.62-3.64-3.58-5.79-3.58a26.8,26.8,0,0,0-6.81,1.7,59.69,59.69,0,0,0-4.7-3.71c-.31,0-3.28,2.5-4.48,6.55a40.73,40.73,0,0,0-13.39,6.4l0-.66a28.11,28.11,0,0,1-5.48,2.93C72.13,19.27,66,19.56,60.07,22a3.8,3.8,0,0,0-1.31-.6c-2-.13-3-2.09-4.34-2.69S50.3,17.25,49.55,16c-.32-.52-.53-1.27-1-2.12s-1.73-2-2.05-2.63-.79-4-1.54-5.9a7.25,7.25,0,0,0-5.53-4.2,10.92,10.92,0,0,0-1.19,7.5s-1.06-.08-1.59-.14a10.32,10.32,0,0,0,1.77,3.3,4.82,4.82,0,0,1-1.34-.43,6.4,6.4,0,0,0,2,3.11,2.55,2.55,0,0,1-1.72.36,8.94,8.94,0,0,0,2.29,1.63s-1.12-.18-2.25-.31A4.88,4.88,0,0,0,40,18.72a2.44,2.44,0,0,1-.51,1,4.33,4.33,0,0,0,1.88.79s0,.81-1.14,1.64a8.14,8.14,0,0,0,3.95,1.37s-.31.47-2.13,1.06a8.6,8.6,0,0,0,5.7,2.66,5.62,5.62,0,0,1-1.72,1.13,10.71,10.71,0,0,0,4.39.51c-2,1.33-4.9,6.82-4.9,10.4,0,1.71.56,6.42.56,7.94,0,3-4.59,6.18-5.13,6.62s-1,2.83-.81,4.51A50.57,50.57,0,0,0,44,68.93l-12.62,3-4-1.4-19,5L1.41,113.92H13.24Q12.1,120.23,11,126.54l-.68,3.81,3.85.42a287.3,287.3,0,0,0,31.5,1.58c14.26,0,28.71-.79,42.68-1.56s28.23-1.55,42.3-1.55c10.36,0,19.64.42,28.37,1.29l3.33.33.59-3.29,2.37-13.21.08-.44h6.38l6.92-38.36ZM63,70.28a2.19,2.19,0,0,0,0-.72c-.14-.92-.67-1.77-2.19-2.75A2.48,2.48,0,0,0,58.38,65a4.36,4.36,0,0,0-1.48.35,3.91,3.91,0,0,0-3.17-1.49,5,5,0,0,0-2.23.47c-.21-1-1.08-4.61-1.08-4.61s7.12.37,16.21-12.12C68.35,47.52,70.1,50.86,71,52c-1.41,2-4.74,6.57-4.74,7.93,0,2.34,1,4.43,2.15,6.7.52,1.09,1.17,2.71,2,4.11l-4.22.6Z"/><path class="cls-3" d="M56.92,68a3.47,3.47,0,0,0-3.34-2.68c-2.75,0-5.26,3-5.26,3s2.77-1.86,5.09-1.86A4.57,4.57,0,0,1,56.92,68Z"/><path class="cls-3" d="M60,68.08a1.6,1.6,0,0,0-1.7-1.6,1.19,1.19,0,0,0-.52.12A7.6,7.6,0,0,1,60,68.08Z"/><path class="cls-3" d="M55.79,73.67a3.71,3.71,0,0,0,.62-1.38c0-.82-.39-1.12-.77-1.12a1.3,1.3,0,0,0-.83.44A4,4,0,0,1,55.79,73.67Z"/><path class="cls-3" d="M59.51,73.41a5.07,5.07,0,0,0,.54-1.83c0-.79-.23-1.21-.71-1.21a1.06,1.06,0,0,0-.87.62A4.93,4.93,0,0,1,59.51,73.41Z"/><path class="cls-3" d="M111.45,56.05c.28,3-.36,3.55-1.1,3.62a15.9,15.9,0,0,1-1.86,0A6.56,6.56,0,0,0,111.45,56.05Z"/><path class="cls-3" d="M112.15,53.36c.54,3.79,2.34,5.07,2.34,5.07s.12-.5.3-1a7.29,7.29,0,0,0,3.17,2,5.57,5.57,0,0,1-.51-3.25A12.6,12.6,0,0,1,112.15,53.36Z"/><path class="cls-3" d="M99.43,46.74a20.17,20.17,0,0,1,1.94,7.87,14.46,14.46,0,0,0,2.12-1.5,14.25,14.25,0,0,0,1.75,4.94,20.24,20.24,0,0,1,1.5-4.06,5.38,5.38,0,0,0,1.88,2.12,13.31,13.31,0,0,0-2.5-5.18c-.5.78-1.13,1.81-1.13,1.81l-.87-1.81-1.56,1.28A20.05,20.05,0,0,0,99.43,46.74Z"/><path class="cls-3" d="M74.64,49.85A30.15,30.15,0,0,1,74.88,46a11.17,11.17,0,0,0-1.63,5.81,11.39,11.39,0,0,0,3.08,7.73A27.23,27.23,0,0,1,74.64,49.85Z"/><path class="cls-3" d="M49.74,56.18c.22-2.63,2.17-3.91,2.17-7.65,0-3.46-3-7.72-3.56-11-.72,2.48.71,7.73.29,10.85A11.92,11.92,0,0,0,49.74,56.18Z"/><path class="cls-4" d="M94.78,69.73a13.26,13.26,0,0,0,3.84-3.09,71.59,71.59,0,0,1-7.92,3A24.49,24.49,0,0,0,94.78,69.73Z"/><path class="cls-4" d="M80.64,61a7.45,7.45,0,0,1,2.24-3.16A7.35,7.35,0,0,1,79,54.91,10.51,10.51,0,0,0,80.64,61Z"/><path class="cls-4" d="M72.42,43.65a14.19,14.19,0,0,1-.57-4.08,19.23,19.23,0,0,1,1.42-7.15c-.71.24-4.85,4.74-4.85,6.71C68.42,40,72.42,43.65,72.42,43.65Z"/><path class="cls-3" d="M129.25,61.66a6.9,6.9,0,0,1-.29,3s-1.49-4.5-4.29-4.5c-1.64,0-4.07,1.61-4.07,1.61a2.24,2.24,0,0,0-1.32-.33,7.8,7.8,0,0,0-3.74,1s-.45-1.3-2.52-.94-6,2.71-6.73,3.34l-.09.07A23.33,23.33,0,0,1,108,62.48a82.67,82.67,0,0,1-9.42-1.78,61.89,61.89,0,0,0-9.91-1.26A33.8,33.8,0,0,1,97.33,58a11.51,11.51,0,0,0-4.64-5.7s3.87-8.88-4.78-17.9A16.61,16.61,0,0,1,94,37.25c-2.46-7.67-5.11-7.86-5.11-9.47s6.11-5.93,6-7.58a8.63,8.63,0,0,1-1.28-1.95,29.32,29.32,0,0,1-8,2.52c2.91-2,9-5.17,9-5.17a8.66,8.66,0,0,1-.21-2.83c-9.27,2.83-15.57,7.47-18.74,9.46a12,12,0,0,1,1.14-1.94,35,35,0,0,1-7.63,1.52c.52.14,1.14,1.08,1.14,1.08a11.78,11.78,0,0,0-3.56-.7c-1.09.14-15.21,3.36-15.21,14.54a12.81,12.81,0,0,0,2,6.2S51.43,28.72,64.87,27.12c.83-.19,1.68.09,1.68,1.46,0,.9-.24,1.9-.24,3a6,6,0,0,0,1.28,3.32,11.51,11.51,0,0,1,1.74-3.55,11.09,11.09,0,0,0,.15,3.17s2-4.07,8.2-6.11a48.07,48.07,0,0,0,10.63-5.33s-.44,1.78-3.1,3.53-5.92,4.43-5.92,4.43a8.66,8.66,0,0,0-3,6.68A12.68,12.68,0,0,0,78,43.26a12.07,12.07,0,0,1,1.72-3.44,21,21,0,0,0,3,11.13,14,14,0,0,1-4.11-3.05s0,.86,0,1.65c0,6.29,5,7.46,7.34,7.67A10.11,10.11,0,0,0,81,63.81H77.18s2,3.61,9.32,5.49c10.73-2.56,15.85-6.11,15.85-6.11S102,66,97.2,69.62a20,20,0,0,0,5-1.3,38.6,38.6,0,0,0-3,2.92c1.68.27,4.34.44,4.34.44a6.15,6.15,0,0,1,2.25-2.57,10.93,10.93,0,0,0-.52,1.73c0,.91,1.4,1.71,2.74,1.71h2.17a9.56,9.56,0,0,1-.26-1.85,5.63,5.63,0,0,1,1.08-3l.33,1.22s1.42-2.35,3.28-2.35A3.64,3.64,0,0,1,117,68a4.19,4.19,0,0,0,.21-1.53,5.51,5.51,0,0,0-1.3-3c1.23.54,2.12,2.08,2.58,2.37a10.64,10.64,0,0,0,2.13.57,7.1,7.1,0,0,1,2.13,1.51s.89-2.1-1.18-4.71c.72.16,2.43,2.57,3.74,2.59a7.73,7.73,0,0,1-.39-1.35c3.52,1.08,4.27,2.2,4.27,2.2a6.24,6.24,0,0,0,0-.87,3.22,3.22,0,0,1,3,2.26S132.94,62.23,129.25,61.66Z"/><path class="cls-3" d="M126.19,12a32.89,32.89,0,0,1,3.89,4.65,11.12,11.12,0,0,0,1.55-5.91c0-.76-.21-2.13-.73-2.13S128.23,10.55,126.19,12Z"/><path class="cls-3" d="M123.84,41.44a1.83,1.83,0,0,0-.17.82c0,.33.2.65,2.11.65a3.37,3.37,0,0,0,3.62-2.64s-1.11,0-2.31-.05a9.31,9.31,0,0,1,2.39-.7s.28-.85,0-1.26a4.73,4.73,0,0,0-1.82.17,16.33,16.33,0,0,1,1.68-.91,3.13,3.13,0,0,0-1.43-1.86C126.74,39.25,124,40.91,123.84,41.44Z"/><path class="cls-3" d="M119.85,52.63c2.77-.89,6.57-3,6.57-4.6a2.55,2.55,0,0,0-.18-.89s-.9-.19-1.08.48a5.92,5.92,0,0,0,0,1.52,6.49,6.49,0,0,0-3.22-1.36,15,15,0,0,0-4.49,1.31s.63-.76,1-1.22c-4.85-.9-6.34-3.45-6.34-3.45a7.06,7.06,0,0,0,2.76-.31c-2.36-.47-3-1.6-3-1.6s-.64.28-.64,1.8c0,4,4.6,5.74,6,6.38A5.91,5.91,0,0,1,119.85,52.63Z"/><path class="cls-3" d="M130.89,28.13c-.47.25-.58,2-2.63,2a3.22,3.22,0,0,1-2-.76,14.2,14.2,0,0,1,1.41,3.75c1.9-.21,4.24,1.75,4.24,1.75l-.26-1.17A12,12,0,0,1,133,34.83a6.5,6.5,0,0,0-1.07-4.55,10.42,10.42,0,0,1,1.48.95C133.53,28.72,131.36,27.87,130.89,28.13Z"/><path class="cls-3" d="M129.35,26.6h0l-.06-.06-.1-.08-.17-.11c-.1,0-.27.29-.9,1.06h0l.47-.31a.68.68,0,0,1,.2.48.6.6,0,0,1-.6.6.55.55,0,0,1-.47-.29l-.75.87a1.45,1.45,0,0,0,1.15.59,1.65,1.65,0,0,0,1.69-1.56A1.61,1.61,0,0,0,129.35,26.6Zm-.92.48,0,0Z"/><path class="cls-3" d="M131.07,22.34a37.26,37.26,0,0,0-5.5-8.34,8.6,8.6,0,0,0-4.65-2.66c.88,4.94.12,9.51.12,13-1.76-2.34-1.7-4.51-2.78-7.52s-2.55-5.77-4-6-4.3.44-6.17.46a6.93,6.93,0,0,1,1.16,2.41,3,3,0,0,1-.17,1.9c-2.25-3.8-6.58-7.52-7.14-8.11a9.5,9.5,0,0,1-1.17-1.37,15,15,0,0,0-.67,3.92c0,1.49.85,1.78,1.11,1.78s.67-.35,1-.23c1.29.53,1.17,3.07,3.65,5.74-1.07.18-7.3-2.17-7.3-6.59a15,15,0,0,1,1.12-5.54,9.9,9.9,0,0,0-3.41,6.62c0,1.56.91,3.25,2.89,5a11.58,11.58,0,0,1-3.49,1.88s.63,1,3.85,1a12.16,12.16,0,0,0,2.62-.52,15.54,15.54,0,0,0-3.35,5.88,10.61,10.61,0,0,1-.33-3.32,10.92,10.92,0,0,0-3.24,8.74,13.8,13.8,0,0,1,2.1-3.94,27.42,27.42,0,0,0-.17,3.29,17.06,17.06,0,0,0,1.49,7.49,12.43,12.43,0,0,1,3.06-1.52c-.65.53-1.47,1.35-1.47,1.35a10.14,10.14,0,0,0,0,1.54,29.58,29.58,0,0,1,4.41-2.65,13.4,13.4,0,0,0,.09,2.7c.56-.5,4.45-5.37,8.58-5.37a9,9,0,0,1,5.27,2.15c-.72,0-1.79-.39-2.93-.39a4.54,4.54,0,0,0-2.44,1.27A13.65,13.65,0,0,1,117.2,38a22.65,22.65,0,0,0-4.87-.48,1.78,1.78,0,0,0-.39.8,18,18,0,0,1,5.73,1.55s-3.13-.11-5.66-.24a2.47,2.47,0,0,0,.67,1,23.41,23.41,0,0,0,3.91.23,11.22,11.22,0,0,1-2.86.59,8.11,8.11,0,0,0,4.18,1.37c.79,0,3.45-.32,3.74-.71s.23-.75.23-1.3-4.82-4.95-4.82-4.95a5,5,0,0,0,1.28.26c.53,0,4.1-.91,5.4-.91a7.14,7.14,0,0,1,2.36.35c0-4.68-2.51-10-2.51-10a17.48,17.48,0,0,1,1.69,2.15,22.13,22.13,0,0,1,4.89-5.51s-.09.51-.15.89C130.63,22.63,131.07,22.34,131.07,22.34Zm-14.26-5a15.48,15.48,0,0,1,1,6.35s-2.41-.93-2.54-1.9S116.58,19.56,116.81,17.31Zm2.65,17.35a8.87,8.87,0,0,1-2.11-3.28c-.61.53-2.28,1.67-2.28,1.67s1.8-2.55,1.8-3.11-.57-.68-1.15-.68a17.79,17.79,0,0,1-2.17.41c-3.57,0-2.55-3.12-4.86-3.12a12.82,12.82,0,0,0-4.16,2.69,15.64,15.64,0,0,1,3.56,0,9.19,9.19,0,0,0-4,2,41,41,0,0,1-3.54,2.48c2-11.61,8.36-11.88,8.36-11.88l-.44-.5a8.4,8.4,0,0,1,6.73,3.6C118,28.75,120,30,120,30a4.55,4.55,0,0,0-1.32,0A20.4,20.4,0,0,0,119.46,34.66Zm4.64-11a19.79,19.79,0,0,1-1.49-6.27c1,2.06,2.45,2.85,2.7,3.79S124.1,23.62,124.1,23.62Z"/><path class="cls-4" d="M115.84,10.38c2,1.55,3.24,4.7,4.09,7.3,0-2.37,0-5.25-.4-6.43a26.63,26.63,0,0,1-3.42-1Z"/><path class="cls-1" d="M132.62,17.07s1.72-1.62,1.72-2.9c0-2.63-2.32-5-2.32-5a11.12,11.12,0,0,1,.92,3.9A31.7,31.7,0,0,1,132.62,17.07Z"/><path class="cls-1" d="M117.26,45.88c.91-.75,1-1.88,1.33-1.88s.66.81.66,1.42-.26,1-.82,1A1.67,1.67,0,0,1,117.26,45.88Z"/><path class="cls-1" d="M124.52,46.52a1.57,1.57,0,0,0,.09-.57c.38.18.64.44,1,.44a.86.86,0,0,0,.79-1c0-.64-.32-1.54-.61-1.54s-.33,1-1.23,1.69a1.15,1.15,0,0,0-.53-.38,4.69,4.69,0,0,1-1.54.27,16.55,16.55,0,0,1-1.91-.24c-.3,0-.27.44-.81,1.15a10.57,10.57,0,0,1,2.33-.21A11.75,11.75,0,0,1,124.52,46.52Z"/><path class="cls-4" d="M121,37.05l.51.69a1.35,1.35,0,0,1,.66-.47c.44-.09.87,2.16.87,2.16s.77-2.3.23-2.83A8,8,0,0,0,121,37.05Z"/><path class="cls-4" d="M124.6,36.78l-.17,2A4.72,4.72,0,0,0,125.68,37,2.33,2.33,0,0,0,124.6,36.78Z"/><path class="cls-4" d="M133.22,27.62l-.31-.92c-.2-1-.75-2.43-1.26-2.4s-1.44,1.05-1.44,1.05a3.29,3.29,0,0,1,2.18,1.07l-1-.13Z"/><path class="cls-4" d="M130.13,43.62a8.29,8.29,0,0,1,.9.81,5.29,5.29,0,0,0,.72-1.65A5.72,5.72,0,0,1,130.13,43.62Z"/><path class="cls-4" d="M129.4,34.86a5.75,5.75,0,0,1,2.23,4,7.07,7.07,0,0,1-.41,2.78,4.63,4.63,0,0,0,1.31-3.22C132.53,35.92,129.4,34.86,129.4,34.86Z"/><path class="cls-4" d="M108,47.24A11,11,0,0,1,109.54,43a5.24,5.24,0,0,1-2.08-1.93l3,0a12.42,12.42,0,0,1-.31-2.09c0-3.31,3.34-4.54,3.34-4.54s-5.3.09-5,4.92a11.17,11.17,0,0,1-2-.28l-2.6,2.38a13.21,13.21,0,0,1-.7-2.92c-4.48,2.16-3,5.29-3,5.29a17.39,17.39,0,0,1,2.08-2c.15.85.53,2.34.53,2.34a33.93,33.93,0,0,1,3.13-2.86A13.88,13.88,0,0,0,108,47.24Z"/><path class="cls-4" d="M96.05,32.76a14.89,14.89,0,0,0,1.23,8.16c.58-.76,1.78-1.67,1.67-1.67a8.53,8.53,0,0,1-1.26.21A33.34,33.34,0,0,1,96.05,32.76Z"/><path class="cls-4" d="M94,30.09a20.89,20.89,0,0,1,.6-3.61,10,10,0,0,0-1.33,2.94Z"/><path class="cls-4" d="M103.19,28.6c0-.61,2.16-5.85,6.64-5.85a1.45,1.45,0,0,1,1.46.88,7.94,7.94,0,0,0-3,.82,7.36,7.36,0,0,1,1.58.59S106.5,24.86,103.19,28.6Z"/><path class="cls-1" d="M126.4,47.78a2.51,2.51,0,0,0-.16-.64s-.9-.19-1.08.48a5.25,5.25,0,0,0,0,1.37A7.92,7.92,0,0,0,126.4,47.78Z"/><path class="cls-1" d="M113.66,47.3A24.37,24.37,0,0,0,118.49,50a3.64,3.64,0,0,1,1.7,1.22,12.89,12.89,0,0,0,4.86-2.13,6.22,6.22,0,0,0-3.11-1.28,15,15,0,0,0-4.49,1.31s.63-.76,1-1.22c-4.85-.9-6.34-3.45-6.34-3.45a7.06,7.06,0,0,0,2.76-.31c-2.36-.47-3-1.6-3-1.6a1.11,1.11,0,0,0-.49.7A5,5,0,0,0,113.66,47.3Z"/><path class="cls-1" d="M125.72,41.65A4.17,4.17,0,0,0,129,40.27c-.44,0-1.13,0-1.86-.05a9.31,9.31,0,0,1,2.39-.7s.28-.85,0-1.26a4.73,4.73,0,0,0-1.82.17,16.33,16.33,0,0,1,1.68-.91,3.13,3.13,0,0,0-1.43-1.86c-1.18,3.59-3.9,5.25-4.08,5.78h0A7.38,7.38,0,0,0,125.72,41.65Z"/><path class="cls-1" d="M112.93,39.7a9.51,9.51,0,0,0,1.8,1.18c.51,0,1.13,0,1.86,0a6.2,6.2,0,0,1-1,.31,7.27,7.27,0,0,0,2.4.42,8.19,8.19,0,0,0,3.92-.68v-.1c0-.55-4.82-4.95-4.82-4.95l.28.08,0,0a6.73,6.73,0,0,0-1.18-.75l-.37,0a4.54,4.54,0,0,0-2.44,1.27A13.65,13.65,0,0,1,117.2,38a22.65,22.65,0,0,0-4.87-.48,1.78,1.78,0,0,0-.39.8,18,18,0,0,1,5.73,1.55Z"/><path class="cls-1" d="M125.65,31.84a4.28,4.28,0,0,1-1.86,3.43,6.92,6.92,0,0,1,2.31.35A17.91,17.91,0,0,0,125.65,31.84Z"/><path class="cls-1" d="M124.39,26.5a11.5,11.5,0,0,1,.89,1.22,33,33,0,0,1,2.24-2.94c0-.22,0-.49.07-.81A13.93,13.93,0,0,0,124.39,26.5Z"/><path class="cls-1" d="M128.26,30.12a3.22,3.22,0,0,1-2-.76,12.89,12.89,0,0,1,.81,1.75,3.72,3.72,0,0,0,3.58-1.31c.56-.67.71-.7,1.16-.77a1.21,1.21,0,0,0-.9-.9C130.42,28.38,130.31,30.12,128.26,30.12Z"/><path class="cls-1" d="M115.21,24.94a26.76,26.76,0,0,0,3.28,3.79c-.26-1.42.33-2.11,0-2.48a12.73,12.73,0,0,0-4-2.79l.07.6A10.94,10.94,0,0,1,115.21,24.94Z"/><path class="cls-1" d="M115.21,30.68c.4,0,.71.48.89.82a5.3,5.3,0,0,0,.77-1.56c0-.57-.57-.68-1.15-.68a17.79,17.79,0,0,1-2.17.41c-2.54,0-2.76-1.57-3.5-2.48a4.58,4.58,0,0,0-2.63,1s1.42,0,1.71.26A5.68,5.68,0,0,0,112,30.56,11.75,11.75,0,0,0,115.21,30.68Z"/><path class="cls-1" d="M98.6,10.78a15,15,0,0,1,1.12-5.54,9.9,9.9,0,0,0-3.41,6.62c0,1.56.91,3.25,2.89,5a7.26,7.26,0,0,0,4.25,1.49,10.33,10.33,0,0,1-1.2-2.32C100.41,14.94,98.6,13.16,98.6,10.78Z"/><path class="cls-3" d="M114.15,27.2a.71.71,0,0,1-.63.34.69.69,0,0,1-.69-.67.62.62,0,0,1,.25-.47l.61.37h0c-.23-.23-.43-.45-.6-.65l0-.05c-.07-.08-.12-.15-.18-.21l0-.07-.17-.21a1.67,1.67,0,0,0-.23.12l0,0-.17.12h0a1.58,1.58,0,0,0-.6,1.15,1.87,1.87,0,0,0,1.94,1.75A2.1,2.1,0,0,0,115.2,28C114.74,27.71,114.09,27.15,114.15,27.2Z"/><path class="cls-1" d="M113.68,26.76a11.7,11.7,0,0,1-1-1.19,2,2,0,0,0-.46.28l1.51.92Z"/><path class="cls-1" d="M129.29,26.54l-.1-.08-.17-.11c-.1,0-.27.29-.9,1.06h0l.47-.31.74-.5Z"/><path class="cls-1" d="M116.33,76a10.45,10.45,0,0,0,.74-3.51c0-1.75-1-3.58-2.27-3.58s-2,1.65-2,2c0,.72,1.36,1.43,2,2A12.34,12.34,0,0,1,116.33,76Z"/><path class="cls-1" d="M118.77,69.72a2.4,2.4,0,0,1,2-1.82c.93,0,2,1.28,2,3.82A11.35,11.35,0,0,1,120.78,77a16.41,16.41,0,0,0-.82-4.65C119.42,71.08,118.77,70.7,118.77,69.72Z"/><path class="cls-1" d="M125.6,76.38s3.41-2,3.41-5.66c0-2.1-.76-3-2-3s-2.34.74-2.34,1.22c0,1.38.83,2.19,1,3.54A22.6,22.6,0,0,1,125.6,76.38Z"/><path class="cls-1" d="M129.18,76.6s2.91-1.85,3.34-4.53c.21-1.51-.29-2.41-1.47-2.41s-1.8.4-1.8.87.57,1.14.57,1.66A16.69,16.69,0,0,1,129.18,76.6Z"/><path class="cls-3" d="M116.86,74.08c-1.19-3-3.2-4-3.31-4.43,0,0,0-.06,0-.08a2.82,2.82,0,0,0-.72,1.38c0,.72,1.36,1.43,2,2A12.34,12.34,0,0,1,116.33,76a11,11,0,0,0,.56-1.85Z"/><path class="cls-3" d="M120.78,77a13.81,13.81,0,0,0,1.09-2,16.85,16.85,0,0,0-2.05-6.41,2.93,2.93,0,0,1,0-.35,2.27,2.27,0,0,0-1,1.45c0,1,.65,1.36,1.19,2.66A16.41,16.41,0,0,1,120.78,77Z"/><path class="cls-3" d="M127.39,74.81a11.06,11.06,0,0,0,.3-2.26,10.47,10.47,0,0,0-.43-3.15c-.14-.48-1.11-.55-1.11-1a4,4,0,0,1,.07-.62c-.91.21-1.59.75-1.59,1.13,0,1.38.83,2.19,1,3.54a22.6,22.6,0,0,1-.05,3.88A8.05,8.05,0,0,0,127.39,74.81Z"/><path class="cls-3" d="M130.86,73.26a7.4,7.4,0,0,0-.4-3.11c0-.09,0-.27.07-.46-.84.1-1.28.45-1.28.84s.57,1.14.57,1.66a16.69,16.69,0,0,1-.64,4.41,9.55,9.55,0,0,0,1.23-1A9.85,9.85,0,0,0,130.86,73.26Z"/><path class="cls-3" d="M46.19,17.13a1.89,1.89,0,0,0,1,.57,4.85,4.85,0,0,1-.54-1.58,11.14,11.14,0,0,1,2,.52s0,0,0-.07a7.29,7.29,0,0,1-.47-1,12.11,12.11,0,0,0-.56-1.16,10.05,10.05,0,0,0-.85-1.1,18.13,18.13,0,0,1-1.81-.24A16.15,16.15,0,0,0,46.19,17.13Z"/><path class="cls-3" d="M42.9,6.82c-.12.13-.07.64,0,1a25.22,25.22,0,0,0,.66,3.32,9.22,9.22,0,0,0,1.61.93A18.62,18.62,0,0,1,44,9.77a4.08,4.08,0,0,1,1,.54l-.18-.84c-.06-.28-.12-.57-.19-.87A9.74,9.74,0,0,0,42.9,6.82Z"/><path class="cls-3" d="M47.7,18.68a12.35,12.35,0,0,0,2.89,2.06,12.06,12.06,0,0,0,3,.07,4.49,4.49,0,0,1-1.54.69,53.62,53.62,0,0,0,5.62,2.17c.19,0,.89-.54,1.55-.88a2.64,2.64,0,0,0-.64-.3,5.91,5.91,0,0,1-3.5-1.89A4.84,4.84,0,0,0,54,19.71l-1-.41a13.94,13.94,0,0,1-3.51-1.77l-.23.25A13.39,13.39,0,0,1,47.7,18.68Z"/><path class="cls-4" d="M161.72,113.72c-48.27-5.29-96.54,5-144.82.25l-.07.4.07-.15,2.23,6.38-4.44,6.6c48.22,5.25,96.44-5,144.66-.27l-2.23-6.38Z"/><path class="cls-1" d="M29,124.49l-2.7-.14a4.12,4.12,0,0,1-1.35-.26,1.31,1.31,0,0,1-.66-.63,1.52,1.52,0,0,1-.14-.69c0-.26.07-.71.17-1.34s.23-1.23.32-1.57A3.63,3.63,0,0,1,25,119c.38-.59,1.14-.85,2.3-.79l2.74.14c-.08.46-.16.92-.23,1.38l-3.38-.17c-.18,1.12-.37,2.24-.56,3.36,1.12.07,2.25.12,3.37.18C29.14,123.57,29.06,124,29,124.49Z"/><path class="cls-1" d="M29.56,124.51c.34-2,.69-4.08,1-6.13q2.52.11,5,.18c-.08.46-.16.92-.23,1.38l-3.33-.11c0,.32-.11.64-.16,1l3.2.11-.24,1.38c-1.06,0-2.12-.06-3.19-.11-.06.35-.11.69-.17,1l3.32.11c-.07.46-.15.92-.23,1.38C32.92,124.65,31.24,124.59,29.56,124.51Z"/><path class="cls-1" d="M35.24,124.72l1-6.15,2.81.06,1,5c.28-1.65.55-3.3.83-5l1.65,0q-.51,3.08-1,6.17l-2.71,0c-.38-1.63-.75-3.27-1.13-4.9l-.81,4.86Z"/><path class="cls-1" d="M44.13,124.85c.27-1.59.53-3.19.79-4.78h-2c.08-.46.15-.93.23-1.39,1.94,0,3.89,0,5.83,0-.08.46-.15.93-.23,1.39H46.64c-.27,1.6-.53,3.2-.79,4.79Z"/><path class="cls-1" d="M48.5,124.84l1-6.19,3.77-.05a2.63,2.63,0,0,1,1.43.25.85.85,0,0,1,.38.51,1.64,1.64,0,0,1,0,.77,1.58,1.58,0,0,1-1.25,1.4,1.33,1.33,0,0,1,.35.14.52.52,0,0,1,.22.22,1.09,1.09,0,0,1,.18.55,6,6,0,0,1-.1,1c-.07.44-.15.88-.22,1.32l-1.71,0c.12-.78.25-1.55.38-2.32l-2.39,0-.39,2.31Zm2.31-3.65,2.4,0c.06-.41.13-.82.2-1.23L51,120Z"/><path class="cls-1" d="M54.88,124.74l3.24-6.26,2.42-.07,1.2,6.14-1.73.06c-.07-.38-.15-.76-.22-1.14l-2.63.08-.63,1.15Zm3-2.6,1.7,0-.45-2.46Z"/><path class="cls-1" d="M62.31,124.53l1-6.21,1.72-.07c-.27,1.61-.53,3.21-.8,4.82l3.21-.13c-.08.47-.16.94-.23,1.4Z"/><path class="cls-1" d="M70.61,124.2c.07-.47.15-.94.23-1.4l3.84-.19c.06-.33.11-.67.17-1l-1.47.08c-.61,0-1,0-1.18,0a1.49,1.49,0,0,1-.56-.14,1,1,0,0,1-.52-.59,2.16,2.16,0,0,1,0-1.06,2.83,2.83,0,0,1,.37-1,2,2,0,0,1,.69-.68,2.19,2.19,0,0,1,.6-.23,5.85,5.85,0,0,1,.94-.1l3.06-.15c-.08.46-.16.93-.23,1.4l-3.63.18c-.06.33-.11.67-.17,1l1.87-.09a4.07,4.07,0,0,1,.89,0,1.43,1.43,0,0,1,.57.2,1.37,1.37,0,0,1,.47,1.51,2.84,2.84,0,0,1-.35,1,2,2,0,0,1-.66.69,2.11,2.11,0,0,1-.67.28,5.43,5.43,0,0,1-1,.13Z"/><path class="cls-1" d="M81.9,123.63l-2.71.15a3.87,3.87,0,0,1-1.34-.11,1.11,1.11,0,0,1-.67-.56,1.38,1.38,0,0,1-.13-.67,9.82,9.82,0,0,1,.17-1.36,15,15,0,0,1,.32-1.61,3.51,3.51,0,0,1,.35-.89,2.65,2.65,0,0,1,2.3-1l2.73-.15c-.08.47-.15.94-.23,1.41l-3.37.18-.57,3.42,3.38-.18C82.05,122.7,82,123.17,81.9,123.63Z"/><path class="cls-1" d="M82.48,123.6l1-6.23,1.72-.09-.39,2.36,2.61-.14.39-2.36,1.71-.1-1,6.24-1.72.09c.14-.82.27-1.65.41-2.47L84.6,121c-.14.82-.27,1.65-.41,2.47Z"/><path class="cls-1" d="M93.52,116.78c.49,0,.85,0,1.06,0a3.25,3.25,0,0,1,.58.08,1.08,1.08,0,0,1,.81.74,6.2,6.2,0,0,1-.11,2.05,12.91,12.91,0,0,1-.4,1.86,2.08,2.08,0,0,1-.53.88,2.26,2.26,0,0,1-1,.54,10.06,10.06,0,0,1-1.88.23q-.82,0-1.14,0a2.11,2.11,0,0,1-.61-.1,1.08,1.08,0,0,1-.79-.78,6.58,6.58,0,0,1,.13-2.13,11.87,11.87,0,0,1,.39-1.81,2.18,2.18,0,0,1,.54-.86,2.29,2.29,0,0,1,1-.48A11.64,11.64,0,0,1,93.52,116.78Zm-2.39,5,2.66-.15c.19-1.17.38-2.34.58-3.51l-2.66.14C91.52,119.44,91.33,120.62,91.13,121.79Z"/><path class="cls-1" d="M100.27,116.43q.74,0,1,0a3.25,3.25,0,0,1,.58.08,1.07,1.07,0,0,1,.81.75,5.93,5.93,0,0,1-.11,2,13,13,0,0,1-.4,1.85,2,2,0,0,1-1.51,1.41,9.49,9.49,0,0,1-1.89.23q-.83,0-1.14,0a2.18,2.18,0,0,1-.61-.11,1.07,1.07,0,0,1-.79-.77,7,7,0,0,1,.13-2.14,12.48,12.48,0,0,1,.39-1.81,2.05,2.05,0,0,1,.55-.85,2,2,0,0,1,1-.48A11.16,11.16,0,0,1,100.27,116.43Zm-2.39,5,2.65-.14c.19-1.17.39-2.34.58-3.52l-2.66.14Z"/><path class="cls-1" d="M102.68,122.53c.35-2.08.69-4.15,1-6.23l1.71-.08c-.26,1.61-.53,3.21-.79,4.82l3.2-.14c-.08.46-.15.93-.23,1.4Z"/><path class="cls-1" d="M110.75,122.16l1-6.22,3.87-.14c.86,0,1.42.18,1.67.63a1.6,1.6,0,0,1,.17.77,12,12,0,0,1-.18,1.51,10.4,10.4,0,0,1-.42,1.86,2.11,2.11,0,0,1-.59.88,2.71,2.71,0,0,1-1.71.56Zm1.94-1.47,2.53-.09c.19-1.14.37-2.27.56-3.41l-2.52.09Z"/><path class="cls-1" d="M117.38,121.92l1-6.21,1.72,0-1,6.2Z"/><path class="cls-1" d="M119.89,121.85c.08-.47.16-.93.23-1.4l3.85-.09c0-.33.11-.67.16-1l-1.47,0c-.61,0-1,0-1.18,0a1.84,1.84,0,0,1-.56-.16,1,1,0,0,1-.52-.6,2.32,2.32,0,0,1,0-1.07,2.74,2.74,0,0,1,.38-1,1.77,1.77,0,0,1,.69-.67,2.25,2.25,0,0,1,.6-.22,6.34,6.34,0,0,1,.94-.07l3-.06c-.07.47-.15.93-.23,1.39l-3.63.08c0,.33-.11.67-.16,1l1.87,0a4.43,4.43,0,0,1,.89,0,1.29,1.29,0,0,1,1,1.74,2.65,2.65,0,0,1-.35,1,2,2,0,0,1-.65.66,2.17,2.17,0,0,1-.67.26,5,5,0,0,1-1,.1Z"/><path class="cls-1" d="M127.81,121.69c.27-1.6.53-3.19.79-4.79l-2,0c.08-.46.15-.93.23-1.39,1.94,0,3.89,0,5.83,0-.08.46-.15.93-.23,1.39h-2.09c-.27,1.59-.53,3.19-.79,4.79Z"/><path class="cls-1" d="M132.18,121.67l1-6.18,3.77,0a2.74,2.74,0,0,1,1.43.3.9.9,0,0,1,.38.52,1.69,1.69,0,0,1,0,.78,1.52,1.52,0,0,1-1.24,1.36,1.67,1.67,0,0,1,.34.14.76.76,0,0,1,.23.24,1.18,1.18,0,0,1,.17.55,5,5,0,0,1-.1,1c-.07.44-.15.88-.22,1.31l-1.71,0c.12-.77.25-1.53.38-2.3l-2.39,0-.39,2.31C133.32,121.67,132.75,121.66,132.18,121.67Zm2.31-3.63,2.4,0c.07-.4.13-.81.2-1.22l-2.39,0Z"/><path class="cls-1" d="M138.65,121.71l1-6.15,1.72,0q-.51,3.07-1,6.16Z"/><path class="cls-1" d="M146.14,121.92l-2.71-.1a3.8,3.8,0,0,1-1.35-.21,1.27,1.27,0,0,1-.66-.61,1.45,1.45,0,0,1-.13-.68,10.78,10.78,0,0,1,.16-1.35c.12-.7.23-1.23.32-1.58a3.32,3.32,0,0,1,.36-.86,2.4,2.4,0,0,1,2.3-.85l2.73.1c-.08.46-.16.92-.23,1.38l-3.38-.12c-.18,1.13-.37,2.25-.56,3.38,1.13,0,2.25.07,3.38.12C146.29,121,146.21,121.46,146.14,121.92Z"/><path class="cls-1" d="M148.73,122c.26-1.58.53-3.16.79-4.75l-2-.09.24-1.38q2.91.12,5.83.32c-.08.45-.16.91-.23,1.37l-2.1-.12c-.26,1.58-.52,3.16-.79,4.74Z"/><path class="cls-1" d="M21.75,92.61a4.78,4.78,0,0,1,3.66,1.44,3.82,3.82,0,0,1,1,3.47l-1.59,9.08L20.33,110H11.45a4.75,4.75,0,0,1-3.66-1.45,3.86,3.86,0,0,1-1-3.51l.83-4.56h7.11l-.71,4h4l1.13-6.27H13.64A4.75,4.75,0,0,1,10,96.73a3.84,3.84,0,0,1-1-3.51l1.84-10.48,4.45-3.43h8.87a4.78,4.78,0,0,1,3.66,1.45,3.85,3.85,0,0,1,1,3.51l-1,5.53H20.69l.67-3.73a.9.9,0,0,0-.24-.83,1.12,1.12,0,0,0-.87-.35h-4.7a.92.92,0,0,1,.19.13c.07.06.2.2.39.41a4.27,4.27,0,0,1,.49.71,3.58,3.58,0,0,1,.32,1,3.51,3.51,0,0,1,0,1.21l-.78,4.3Z"/><path class="cls-1" d="M45.94,98l-1.51,8.64L39.94,110H31a4.78,4.78,0,0,1-3.67-1.45,3.85,3.85,0,0,1-1-3.51l4-22.32,4.49-3.43h8.87a5.3,5.3,0,0,1,2.68.66,4,4,0,0,1,1.69,1.8,4.13,4.13,0,0,1,.28,2.5l-1.14,6.32H40.11l1-5.7h-6a3.16,3.16,0,0,1,.5.37,4.12,4.12,0,0,1,.91,3l-2.93,16.23h4.07L38.83,98Z"/><path class="cls-1" d="M61,91.69l2.23-12.38h7.06L64.75,110H55.58a1.1,1.1,0,0,0,.14-.11,2.38,2.38,0,0,0,.33-.33c.16-.17.33-.36.49-.55a9.09,9.09,0,0,0,.57-.72,7.24,7.24,0,0,0,.58-.9,7.71,7.71,0,0,0,.49-1.07,6.91,6.91,0,0,0,.35-1.28l1.41-7.8H53.52a3.72,3.72,0,0,1,.52.37,3.09,3.09,0,0,1,.68,1.14,3.34,3.34,0,0,1,.19,1.91L53.23,110H44.11a9,9,0,0,0,.7-.61,10.53,10.53,0,0,0,1.2-1.67,7.57,7.57,0,0,0,1.05-2.68l3.75-20.79a6.36,6.36,0,0,0,0-2.61A4.5,4.5,0,0,0,50,79.88l-.39-.57h9.12L56.54,91.69Z"/><path class="cls-1" d="M86,106.6,81.47,110H72.59a4.78,4.78,0,0,1-3.66-1.45,3.85,3.85,0,0,1-1-3.51l4-22.32,4.44-3.43h8.87A4.82,4.82,0,0,1,89,80.76a3.87,3.87,0,0,1,1,3.51Zm-6.77-2.15,3.32-18.38a.93.93,0,0,0-.25-.83,1.1,1.1,0,0,0-.86-.35H76.69l.2.13c.07.06.2.2.39.41a4.22,4.22,0,0,1,.48.71,3.47,3.47,0,0,1,.32,2.17l-2.91,16.14Z"/><path class="cls-1" d="M110.34,84.27l-4,22.33L101.87,110H85.59a8,8,0,0,0,.7-.63,10,10,0,0,0,1.26-2,11,11,0,0,0,1.17-3.33l3.76-20.84a3.84,3.84,0,0,0-.17-1.91,4.8,4.8,0,0,0-.79-1.51l-.39-.53h14.56a4.78,4.78,0,0,1,3.66,1.45A3.85,3.85,0,0,1,110.34,84.27ZM95.51,104.49h4.36l3.33-18.42a.93.93,0,0,0-.24-.83,1.12,1.12,0,0,0-.87-.35H97c.11.08.27.22.47.39a4.06,4.06,0,0,1,.7,1.14,3.12,3.12,0,0,1,.22,1.89Z"/><path class="cls-1" d="M127.66,79.31a4.73,4.73,0,0,1,3.61,1.45,3.9,3.9,0,0,1,1,3.51L127.66,110h-9.17a6.51,6.51,0,0,0,.67-.61,11.79,11.79,0,0,0,1.21-1.69,7.27,7.27,0,0,0,1.07-2.66l1.24-6.84h-6.43l.23.13a3.27,3.27,0,0,1,.41.42,4.19,4.19,0,0,1,.49.7,3.1,3.1,0,0,1,.29,1,3.73,3.73,0,0,1,0,1.2L116.13,110H107a7.49,7.49,0,0,0,.7-.61,9.8,9.8,0,0,0,1.21-1.67,7.57,7.57,0,0,0,1-2.68l3.75-20.79a6.54,6.54,0,0,0,0-2.61,4.49,4.49,0,0,0-.74-1.78l-.38-.57Zm-7.61,9-.78,4.34h4.41l1.19-6.58a.87.87,0,0,0-.09-.59,1,1,0,0,0-.41-.44,1.34,1.34,0,0,0-.66-.15h-5a3.32,3.32,0,0,1,.52.39,3.72,3.72,0,0,1,.67,1.14A3.19,3.19,0,0,1,120.05,88.31Z"/><path class="cls-1" d="M150.48,98,149,106.6l-4.5,3.42h-9a4.78,4.78,0,0,1-3.66-1.45,3.85,3.85,0,0,1-1-3.51l4-22.32,4.5-3.43h8.87a5.32,5.32,0,0,1,2.68.66,3.94,3.94,0,0,1,1.68,1.8,4.06,4.06,0,0,1,.29,2.5l-1.14,6.32h-7.11l1-5.7h-6a3.14,3.14,0,0,1,.49.37,4,4,0,0,1,.91,3l-2.92,16.23h4.07L143.37,98Z"/><path class="cls-1" d="M166.83,94.84,170.27,110h-7.21l-2.67-11.84H160L157.81,110h-9.17a9,9,0,0,0,.7-.61,9.8,9.8,0,0,0,1.21-1.67,7.57,7.57,0,0,0,1-2.68l3.75-20.79a6.36,6.36,0,0,0,0-2.61,4.36,4.36,0,0,0-.73-1.78l-.39-.57h9.17L161,92.65h.54l4-8.38a8.74,8.74,0,0,0,.6-1.71,4.3,4.3,0,0,0,.15-1.38c0-.37-.07-.7-.11-1a2.73,2.73,0,0,0-.18-.66l-.11-.22h8.73Z"/><path class="cls-3" d="M19.17,96.91h.14l.12-.64H12.35a4.57,4.57,0,0,1-1.15-.15,3.66,3.66,0,0,0,2.43.79Z"/><path class="cls-3" d="M25.59,81a2.58,2.58,0,0,1,.65,2.4l-.8,4.47h-3.1l-.12.65h4.41l.88-4.89a3.93,3.93,0,0,0,.06-.48,2.46,2.46,0,0,0-.7-1.51,3.15,3.15,0,0,0-1.58-.89A2.34,2.34,0,0,1,25.59,81Z"/><path class="cls-3" d="M15.65,87.69a1.37,1.37,0,0,0,0-.28v0a2.28,2.28,0,0,0-.18-.59,2.62,2.62,0,0,0-.34-.48L14.92,86l-1.27-.63.22.25a2.56,2.56,0,0,1,.33.48,2.13,2.13,0,0,1,.19.59,2.3,2.3,0,0,1,0,.74l-1.05,5.81h1.27Z"/><path class="cls-3" d="M20.25,83.62a3,3,0,0,1,.43,0A2.4,2.4,0,0,0,19,83H12.65l-.64.49,0,.15h8.27Z"/><path class="cls-3" d="M19.88,108.76,23.53,106l1.59-9.08c0-.16,0-.31.06-.45a2.53,2.53,0,0,0-.71-1.5,3.15,3.15,0,0,0-1.58-.89,3.61,3.61,0,0,1,.3.25,2.57,2.57,0,0,1,.66,2.37l-1.5,8.58-3.75,2.86H10.16A4.49,4.49,0,0,1,9,108a3.62,3.62,0,0,0,2.43.79Z"/><polygon class="cls-3" points="11.79 101.81 11.2 105.11 12.47 105.11 13.1 101.81 11.79 101.81"/><path class="cls-3" d="M42,105.26l-3.74,2.86H29.68a4.57,4.57,0,0,1-1.15-.15,3.66,3.66,0,0,0,2.43.79h8.53L43.14,106l1.17-6.72H43Z"/><path class="cls-3" d="M45.62,81.69a2.86,2.86,0,0,1,.19,1.73l-1,5.26h-3.1l-.12.65h4.41l1-5.68a4.88,4.88,0,0,0,.06-.52,2.8,2.8,0,0,0-.22-.8,2.72,2.72,0,0,0-1.16-1.22,3.51,3.51,0,0,0-.85-.34A2.68,2.68,0,0,1,45.62,81.69Z"/><polygon class="cls-3" points="31.5 83.62 41.14 83.62 41.27 83.62 41.39 82.98 32.17 82.98 31.52 83.48 31.5 83.62"/><path class="cls-3" d="M33.16,85.37a1.32,1.32,0,0,1,.28.21,3.74,3.74,0,0,1,.35.69A2.1,2.1,0,0,1,34,87.41l-3.2,17.7h1.4L35.23,87.6s0-.09,0-.14a2.29,2.29,0,0,0-.16-.55,3.49,3.49,0,0,0-.36-.69c-.14-.12-.23-.18-.27-.21L31.39,84.2l0,.1Z"/><path class="cls-3" d="M53.62,100.06c0-.1,0-.2,0-.3a2.52,2.52,0,0,0-.13-.47,3.66,3.66,0,0,0-.34-.67l-.33-.24-3-1.77,0,.12,1.7,1a2,2,0,0,1,.34.24,4.07,4.07,0,0,1,.33.67,2,2,0,0,1,.12,1.18l-1.5,8.29H47.28c-.06.1-.11.22-.18.32l-.2.32h5.15Z"/><polygon class="cls-3" points="55.83 80.62 53.71 92.35 55.11 92.35 57.13 80.62 55.83 80.62"/><polygon class="cls-3" points="60.08 95.99 60.19 95.35 50.12 95.35 50 95.99 60.08 95.99"/><path class="cls-3" d="M68.61,80.62H67.3l-4.91,27.5H58.78c-.13.21-.26.43-.4.64h5.2Z"/><path class="cls-3" d="M81.39,83.62a3.13,3.13,0,0,1,.44,0A2.44,2.44,0,0,0,80.11,83H73.79l-.64.49,0,.15Z"/><path class="cls-3" d="M72.34,105.11h1.4l3.05-17.42c0-.1,0-.19,0-.28s0,0,0,0a1.92,1.92,0,0,0-.18-.59,2.56,2.56,0,0,0-.33-.48L76.06,86l-1.27-.63.22.25a2.56,2.56,0,0,1,.33.48,2.13,2.13,0,0,1,.19.59,2.3,2.3,0,0,1,0,.74Z"/><path class="cls-3" d="M81,108.76,84.67,106l4-22.33a3.93,3.93,0,0,0,.06-.48,2.46,2.46,0,0,0-.7-1.51,3.15,3.15,0,0,0-1.58-.89,2.34,2.34,0,0,1,.3.25,2.61,2.61,0,0,1,.66,2.4l-3.9,21.84-3.74,2.86H71.3a4.49,4.49,0,0,1-1.14-.15,3.62,3.62,0,0,0,2.43.79Z"/><path class="cls-3" d="M93.72,83.62h8.36a3.13,3.13,0,0,1,.44,0A2.44,2.44,0,0,0,100.8,83h-7c0,.18,0,.36-.06.53Z"/><path class="cls-3" d="M105,106l4-22.33a3.93,3.93,0,0,0,.06-.48,2.46,2.46,0,0,0-.7-1.51,3.15,3.15,0,0,0-1.58-.89,2.34,2.34,0,0,1,.3.25,2.58,2.58,0,0,1,.65,2.4l-3.94,21.84-3.7,2.86H88.65l-.36.64h13.12Z"/><path class="cls-3" d="M95,85.29a3.72,3.72,0,0,1,.37.31,3.41,3.41,0,0,1,.41.74,1.83,1.83,0,0,1,.13,1.12l-3.2,17.7H94l3.16-17.47a2.3,2.3,0,0,0,0-.26A2.54,2.54,0,0,0,97,87a4.11,4.11,0,0,0-.41-.74l-.38-.31-2.59-2-.06.29Z"/><polygon class="cls-3" points="122.81 96.96 122.93 96.31 112.85 96.32 112.74 96.96 122.67 96.96 122.81 96.96"/><path class="cls-3" d="M115.09,83.62h8.62a2.61,2.61,0,0,1,.48,0,2.09,2.09,0,0,0-.47-.36,2.51,2.51,0,0,0-1.3-.33h-7.31C115.11,83.19,115.11,83.41,115.09,83.62Z"/><path class="cls-3" d="M116.36,101c0-.12,0-.24,0-.36h0a1.74,1.74,0,0,0-.15-.55,2.86,2.86,0,0,0-.33-.47l-.19-.21,0,0-3.09-1.59v0l1.81.93,0,0,.2.22a2.86,2.86,0,0,1,.33.47,2.1,2.1,0,0,1,.15.55,2.28,2.28,0,0,1,0,.78l-1.32,7.33h-3.58l-.18.32-.2.32H115Z"/><path class="cls-3" d="M131,83.65a3.93,3.93,0,0,0,.06-.48,2.52,2.52,0,0,0-.7-1.51,3.24,3.24,0,0,0-1.59-.9,3.73,3.73,0,0,1,.3.26,2.57,2.57,0,0,1,.66,2.41l-4.41,24.69h-3.65c-.07.1-.12.21-.18.31l-.22.33h5.24Z"/><path class="cls-3" d="M116.72,85.37a3.39,3.39,0,0,1,.3.23,4.74,4.74,0,0,1,.37.71,1.93,1.93,0,0,1,.11,1.15l-.78,4.34-.28,1.51h1.4l.92-5.62a2.89,2.89,0,0,0,0-.29,2.54,2.54,0,0,0-.13-.45,3.48,3.48,0,0,0-.37-.7A1.92,1.92,0,0,0,118,86l-3-1.76a.36.36,0,0,0,0,.11Z"/><path class="cls-3" d="M150.16,81.69a2.79,2.79,0,0,1,.18,1.73l-1,5.26H146.3l-.12.65h4.4l1-5.68c0-.18,0-.35.06-.52a2.82,2.82,0,0,0-.23-.8,2.7,2.7,0,0,0-1.15-1.22,3.68,3.68,0,0,0-.85-.34A2.68,2.68,0,0,1,150.16,81.69Z"/><path class="cls-3" d="M146.5,105.26l-3.75,2.86h-8.54a4.49,4.49,0,0,1-1.14-.15,3.62,3.62,0,0,0,2.43.79H144l3.65-2.78,1.17-6.72h-1.3Z"/><polygon class="cls-3" points="136.03 83.62 145.81 83.62 145.93 82.98 136.71 82.98 136.06 83.48 136.03 83.62"/><path class="cls-3" d="M137.7,85.37a1.66,1.66,0,0,1,.28.21,3.74,3.74,0,0,1,.35.69,2.2,2.2,0,0,1,.17,1.14l-3.2,17.7h1.4l3.07-17.51v-.14a2.25,2.25,0,0,0-.15-.55,3.77,3.77,0,0,0-.36-.69A2,2,0,0,0,139,86l-3.06-1.81,0,.11Z"/><polygon class="cls-3" points="160.41 80.62 158.12 93.31 159.37 93.31 161.72 80.62 160.41 80.62"/><path class="cls-3" d="M160.27,96.91l-.14-.64h-2.54l-2.14,11.85h-3.63l-.18.32-.2.32h5.2l2.23-11.85Z"/><polygon class="cls-3" points="164.08 108.76 168.65 108.76 165.43 94.46 172.29 80.62 170.85 80.62 164.18 94.06 167.37 108.12 163.94 108.12 164.08 108.76"/><path class="cls-2" d="M37.21,66h-.42v-.3H38V66h-.44v1.29h-.36Z"/><path class="cls-2" d="M39.55,66.66c0-.19,0-.42,0-.65h0c-.05.2-.11.43-.17.62l-.2.62h-.28l-.17-.62c-.05-.19-.1-.41-.14-.62h0c0,.22,0,.46,0,.66l0,.6h-.33l.1-1.59h.48l.15.53c.05.19.1.39.13.57h0c.05-.18.1-.39.15-.57l.17-.53h.47l.09,1.59h-.35Z"/></svg>