<svg xmlns="http://www.w3.org/2000/svg" xmlns:xlink="http://www.w3.org/1999/xlink" width="1920" zoomAndPan="magnify" viewBox="0 0 1440 809.999993" height="1080" preserveAspectRatio="xMidYMid meet" version="1.0"><defs><clipPath id="223a9f9548"><path d="M 0 0 L 325.5 0 L 325.5 324 L 0 324 Z M 0 0 " clip-rule="nonzero"/></clipPath><clipPath id="6df537fb2c"><path d="M 1114.5 486 L 1440 486 L 1440 810 L 1114.5 810 Z M 1114.5 486 " clip-rule="nonzero"/></clipPath><clipPath id="fc38bcbb70"><path d="M 0 564.625 L 405 564.625 L 405 809 L 0 809 Z M 0 564.625 " clip-rule="nonzero"/></clipPath><clipPath id="e6cf86321f"><path d="M 1035 1 L 1440 1 L 1440 245.617188 L 1035 245.617188 Z M 1035 1 " clip-rule="nonzero"/></clipPath></defs><g clip-path="url(#223a9f9548)"><path fill="#ffc952" d="M 325.039062 0.769531 C 325.039062 0.769531 321.386719 78.914062 265.785156 117.039062 C 213.285156 153.039062 135.269531 124.539062 114.269531 211.550781 C 93.269531 298.566406 0.257812 324.050781 0.257812 324.050781 L 0.257812 0.0273438 Z M 325.039062 0.769531 " fill-opacity="1" fill-rule="nonzero"/></g><path fill="#ff7b72" d="M 214.195312 0.523438 C 214.195312 0.523438 211.785156 51.976562 175.15625 77.101562 C 140.578125 100.8125 89.1875 82.042969 75.363281 139.355469 C 61.535156 196.667969 0.257812 213.457031 0.257812 213.457031 L 0.257812 0.0273438 Z M 214.195312 0.523438 " fill-opacity="1" fill-rule="nonzero"/><g clip-path="url(#6df537fb2c)"><path fill="#ffc952" d="M 1114.960938 809.230469 C 1114.960938 809.230469 1118.613281 731.085938 1174.214844 692.960938 C 1226.714844 656.960938 1304.730469 685.460938 1325.730469 598.449219 C 1346.730469 511.433594 1439.742188 485.949219 1439.742188 485.949219 L 1439.742188 809.972656 Z M 1114.960938 809.230469 " fill-opacity="1" fill-rule="nonzero"/></g><path fill="#ff7b72" d="M 1225.804688 809.476562 C 1225.804688 809.476562 1228.214844 758.023438 1264.84375 732.898438 C 1299.421875 709.1875 1350.8125 727.957031 1364.636719 670.644531 C 1378.464844 613.332031 1439.742188 596.542969 1439.742188 596.542969 L 1439.742188 809.972656 Z M 1225.804688 809.476562 " fill-opacity="1" fill-rule="nonzero"/><g clip-path="url(#fc38bcbb70)"><path fill="#ff7b72" d="M 0.511719 564.59375 C 0.511719 564.59375 126.105469 571.863281 133.386719 701.109375 C 140.671875 830.359375 258.132812 745.609375 315.472656 750.257812 C 382.828125 755.71875 404.679688 808.507812 404.679688 808.507812 L 0.578125 808.507812 Z M 0.511719 564.59375 " fill-opacity="1" fill-rule="nonzero"/></g><path fill="#ffc952" d="M 0.511719 697.039062 C 0.511719 697.039062 57.902344 700.359375 61.207031 759.425781 C 64.515625 818.492188 118.214844 779.757812 144.390625 781.882812 C 175.171875 784.375 185.152344 808.507812 185.152344 808.507812 L 0.511719 808.507812 Z M 0.511719 697.039062 " fill-opacity="1" fill-rule="nonzero"/><g clip-path="url(#e6cf86321f)"><path fill="#ffc952" d="M 1439.488281 245.648438 C 1439.488281 245.648438 1313.894531 238.382812 1306.613281 109.132812 C 1299.328125 -20.117188 1181.867188 64.632812 1124.527344 59.984375 C 1057.171875 54.523438 1035.320312 1.734375 1035.320312 1.734375 L 1439.421875 1.734375 Z M 1439.488281 245.648438 " fill-opacity="1" fill-rule="nonzero"/></g><path fill="#ff7b72" d="M 1439.488281 113.207031 C 1439.488281 113.207031 1382.097656 109.882812 1378.792969 50.816406 C 1375.484375 -8.25 1321.785156 30.484375 1295.609375 28.359375 C 1264.828125 25.867188 1254.847656 1.734375 1254.847656 1.734375 L 1439.488281 1.734375 Z M 1439.488281 113.207031 " fill-opacity="1" fill-rule="nonzero"/></svg>