<svg version="1.1" xmlns="http://www.w3.org/2000/svg" viewBox="0 0 1345.4462401079013 711.7407587481849" width="1345.4462401079013" height="711.7407587481849">
  <!-- svg-source:excalidraw -->
  
  <defs>
    <style class="style-fonts">
      @font-face {
        font-family: "Virgil";
        src: url("https://excalidraw.com/Virgil.woff2");
      }
      @font-face {
        font-family: "Cascadia";
        src: url("https://excalidraw.com/Cascadia.woff2");
      }
    </style>
  </defs>
  <rect x="0" y="0" width="1345.4462401079013" height="711.7407587481849" fill="#ffffff"></rect><g stroke-linecap="round"><g transform="translate(36.50417370311925 150.59090909090912) rotate(0 263 0)"><path d="M0 0 C159.85 0, 319.7 0, 526 0" stroke="#000000" stroke-width="1.5" fill="none" stroke-dasharray="1.5 7"></path></g></g><mask></mask><g stroke-linecap="round"><g transform="translate(36.50417370311925 409.68181818181824) rotate(0 263 0)"><path d="M0 0 C129.8 0, 259.6 0, 526 0" stroke="#000000" stroke-width="1.5" fill="none" stroke-dasharray="1.5 7"></path></g></g><mask></mask><g stroke-linecap="round"><g transform="translate(36.50417370311925 193.7727272727273) rotate(0 263 0)"><path d="M0 0 C147.64 0, 295.28 0, 526 0" stroke="#000000" stroke-width="1.5" fill="none" stroke-dasharray="1.5 7"></path></g></g><mask></mask><g stroke-linecap="round"><g transform="translate(36.50417370311925 452.8636363636364) rotate(0 263 0)"><path d="M0 0 C121.44 0, 242.89 0, 526 0" stroke="#000000" stroke-width="1.5" fill="none" stroke-dasharray="1.5 7"></path></g></g><mask></mask><g stroke-linecap="round"><g transform="translate(36.50417370311925 236.9545454545455) rotate(0 263 0)"><path d="M0 0 C152.78 0, 305.56 0, 526 0" stroke="#000000" stroke-width="1.5" fill="none" stroke-dasharray="1.5 7"></path></g></g><mask></mask><g stroke-linecap="round"><g transform="translate(36.50417370311925 496.0454545454546) rotate(0 263 0)"><path d="M0 0 C112.52 0, 225.04 0, 526 0" stroke="#000000" stroke-width="1.5" fill="none" stroke-dasharray="1.5 7"></path></g></g><mask></mask><g stroke-linecap="round"><g transform="translate(36.504173703119136 280.1363636363637) rotate(0 263 0)"><path d="M0 0 C143.99 0, 287.97 0, 526 0" stroke="#000000" stroke-width="1.5" fill="none" stroke-dasharray="1.5 7"></path></g></g><mask></mask><g stroke-linecap="round"><g transform="translate(36.504173703119136 539.2272727272727) rotate(0 263 0)"><path d="M0 0 C128.33 0, 256.65 0, 526 0" stroke="#000000" stroke-width="1.5" fill="none" stroke-dasharray="1.5 7"></path></g></g><mask></mask><g stroke-linecap="round"><g transform="translate(36.50417370311925 323.31818181818187) rotate(0 263 0)"><path d="M0 0 C108.1 0, 216.21 0, 526 0" stroke="#000000" stroke-width="1.5" fill="none" stroke-dasharray="1.5 7"></path></g></g><mask></mask><g stroke-linecap="round"><g transform="translate(36.50417370311925 582.4090909090909) rotate(0 263 0)"><path d="M0 0 C209.73 0, 419.45 0, 526 0" stroke="#000000" stroke-width="1.5" fill="none" stroke-dasharray="1.5 7"></path></g></g><mask></mask><g stroke-linecap="round"><g transform="translate(36.50417370311925 366.50000000000006) rotate(0 263 0)"><path d="M0 0 C206.27 0, 412.54 0, 526 0" stroke="#000000" stroke-width="1.5" fill="none" stroke-dasharray="1.5 7"></path></g></g><mask></mask><g stroke-linecap="round"><g transform="translate(252.41326461220956 366.4999999999941) rotate(89.99999999999994 263.00000000000006 0)"><path d="M0 0 C125.49 0, 250.99 0, 526 0" stroke="#000000" stroke-width="1.5" fill="none" stroke-dasharray="1.5 7"></path></g></g><mask></mask><g stroke-linecap="round"><g transform="translate(-6.677644478698312 366.50000000000125) rotate(89.99999999999994 263 0)"><path d="M0 0 C141.07 0, 282.13 0, 526 0" stroke="#000000" stroke-width="1.5" fill="none" stroke-dasharray="1.5 7"></path></g></g><mask></mask><g stroke-linecap="round"><g transform="translate(209.23144643039268 366.4999999999952) rotate(89.99999999999994 262.99999999999994 0)"><path d="M0 0 C189.25 0, 378.51 0, 526 0" stroke="#000000" stroke-width="1.5" fill="none" stroke-dasharray="1.5 7"></path></g></g><mask></mask><g stroke-linecap="round"><g transform="translate(-49.85946266051633 366.5000000000024) rotate(89.99999999999994 263 0)"><path d="M0 0 C154.28 0, 308.56 0, 526 0" stroke="#000000" stroke-width="1.5" fill="none" stroke-dasharray="1.5 7"></path></g></g><mask></mask><g stroke-linecap="round"><g transform="translate(166.04962824857398 366.4999999999966) rotate(89.99999999999994 263.00000000000006 0)"><path d="M0 0 C130.23 0, 260.45 0, 526 0" stroke="#000000" stroke-width="1.5" fill="none" stroke-dasharray="1.5 7"></path></g></g><mask></mask><g stroke-linecap="round"><g transform="translate(-93.04128084233412 366.5000000000034) rotate(89.99999999999994 263 0)"><path d="M0 0 C183.65 0, 367.29 0, 526 0" stroke="#000000" stroke-width="1.5" fill="none" stroke-dasharray="1.5 7"></path></g></g><mask></mask><g stroke-linecap="round"><g transform="translate(122.86781006675528 366.4999999999974) rotate(89.99999999999994 263 0)"><path d="M0 0 C120.56 0, 241.13 0, 526 0" stroke="#000000" stroke-width="1.5" fill="none" stroke-dasharray="1.5 7"></path></g></g><mask></mask><g stroke-linecap="round"><g transform="translate(-136.22309902415327 366.50000000000466) rotate(89.99999999999994 263 0)"><path d="M0 0 C124.23 0, 248.45 0, 526 0" stroke="#000000" stroke-width="1.5" fill="none" stroke-dasharray="1.5 7"></path></g></g><mask></mask><g stroke-linecap="round"><g transform="translate(79.68599188493772 366.49999999999875) rotate(89.99999999999994 263 0)"><path d="M0 0 C172.12 0, 344.23 0, 526 0" stroke="#000000" stroke-width="1.5" fill="none" stroke-dasharray="1.5 7"></path></g></g><mask></mask><g stroke-linecap="round"><g transform="translate(-179.40491720597106 366.5000000000059) rotate(89.99999999999994 263 0)"><path d="M0 0 C142.35 0, 284.69 0, 526 0" stroke="#000000" stroke-width="1.5" fill="none" stroke-dasharray="1.5 7"></path></g></g><mask></mask><g stroke-linecap="round"><g transform="translate(36.504173703119704 366.5000000000001) rotate(89.99999999999994 263 0)"><path d="M0 0 C111.75 0, 223.49 0, 526 0" stroke="#000000" stroke-width="1.5" fill="none" stroke-dasharray="1.5 7"></path></g></g><mask></mask><g stroke-linecap="round"><g transform="translate(84.50417370311914 65) rotate(0 -0.718858675537632 318.1144546292536)"><path d="M-0.41 0.35 C-0.89 106.44, -2.72 529.43, -3.01 635.48 M1.57 -0.51 C1.48 105.82, -0.06 530.88, -0.83 636.74" stroke="#000000" stroke-width="2" fill="none"></path></g></g><mask></mask><g stroke-linecap="round"><g transform="translate(10.504173703119136 367) rotate(0 291.4140028703958 1.1325568746775616)"><path d="M-0.5 -0.97 C96.74 -0.54, 486.02 2.77, 583.33 3.23 M1.43 1.14 C98.55 1.12, 485.66 1.01, 582.56 1.23" stroke="#000000" stroke-width="2" fill="none"></path></g></g><mask></mask><g transform="translate(603.5041737031191 357) rotate(0 25.189979553222656 12.5)"><text x="0" y="0" font-family="Virgil, Segoe UI Emoji" font-size="20px" fill="#000000" text-anchor="start" style="white-space: pre;" direction="ltr" dominant-baseline="text-before-edge">Mass</text></g><g transform="translate(47.504173703119136 37) rotate(0 36.359962463378906 12.5)"><text x="0" y="0" font-family="Virgil, Segoe UI Emoji" font-size="20px" fill="#000000" text-anchor="start" style="white-space: pre;" direction="ltr" dominant-baseline="text-before-edge">Velocity</text></g><g stroke-linecap="round"><g transform="translate(718.0662810014563 149.22052971681666) rotate(0 263 0)"><path d="M0 0 C141.34 0, 282.69 0, 526 0" stroke="#000000" stroke-width="1.5" fill="none" stroke-dasharray="1.5 7"></path></g></g><mask></mask><g stroke-linecap="round"><g transform="translate(718.0662810014563 408.31143880772584) rotate(0 263 0)"><path d="M0 0 C190.48 0, 380.95 0, 526 0" stroke="#000000" stroke-width="1.5" fill="none" stroke-dasharray="1.5 7"></path></g></g><mask></mask><g stroke-linecap="round"><g transform="translate(718.0662810014563 192.40234789863484) rotate(0 263 0)"><path d="M0 0 C148.46 0, 296.91 0, 526 0" stroke="#000000" stroke-width="1.5" fill="none" stroke-dasharray="1.5 7"></path></g></g><mask></mask><g stroke-linecap="round"><g transform="translate(718.0662810014563 451.49325698954385) rotate(0 263 0)"><path d="M0 0 C148.84 0, 297.69 0, 526 0" stroke="#000000" stroke-width="1.5" fill="none" stroke-dasharray="1.5 7"></path></g></g><mask></mask><g stroke-linecap="round"><g transform="translate(718.0662810014563 235.58416608045303) rotate(0 263 0)"><path d="M0 0 C151.09 0, 302.18 0, 526 0" stroke="#000000" stroke-width="1.5" fill="none" stroke-dasharray="1.5 7"></path></g></g><mask></mask><g stroke-linecap="round"><g transform="translate(718.0662810014563 494.6750751713621) rotate(0 263 0)"><path d="M0 0 C171.87 0, 343.75 0, 526 0" stroke="#000000" stroke-width="1.5" fill="none" stroke-dasharray="1.5 7"></path></g></g><mask></mask><g stroke-linecap="round"><g transform="translate(718.0662810014559 278.7659842622712) rotate(0 263 0)"><path d="M0 0 C155.02 0, 310.05 0, 526 0" stroke="#000000" stroke-width="1.5" fill="none" stroke-dasharray="1.5 7"></path></g></g><mask></mask><g stroke-linecap="round"><g transform="translate(718.0662810014559 537.8568933531803) rotate(0 263 0)"><path d="M0 0 C190.32 0, 380.64 0, 526 0" stroke="#000000" stroke-width="1.5" fill="none" stroke-dasharray="1.5 7"></path></g></g><mask></mask><g stroke-linecap="round"><g transform="translate(718.0662810014563 321.9478024440894) rotate(0 263 0)"><path d="M0 0 C175.03 0, 350.06 0, 526 0" stroke="#000000" stroke-width="1.5" fill="none" stroke-dasharray="1.5 7"></path></g></g><mask></mask><g stroke-linecap="round"><g transform="translate(718.0662810014563 581.0387115349984) rotate(0 263 0)"><path d="M0 0 C105.4 0, 210.81 0, 526 0" stroke="#000000" stroke-width="1.5" fill="none" stroke-dasharray="1.5 7"></path></g></g><mask></mask><g stroke-linecap="round"><g transform="translate(718.0662810014563 365.1296206259076) rotate(0 263 0)"><path d="M0 0 C157.61 0, 315.21 0, 526 0" stroke="#000000" stroke-width="1.5" fill="none" stroke-dasharray="1.5 7"></path></g></g><mask></mask><g stroke-linecap="round"><g transform="translate(933.9753719105464 365.1296206259017) rotate(89.99999999999994 263 0)"><path d="M0 0 C207.96 0, 415.93 0, 526 0" stroke="#000000" stroke-width="1.5" fill="none" stroke-dasharray="1.5 7"></path></g></g><mask></mask><g stroke-linecap="round"><g transform="translate(674.8844628196388 365.12962062590873) rotate(89.99999999999994 263 0)"><path d="M0 0 C166.74 0, 333.48 0, 526 0" stroke="#000000" stroke-width="1.5" fill="none" stroke-dasharray="1.5 7"></path></g></g><mask></mask><g stroke-linecap="round"><g transform="translate(890.7935537287298 365.1296206259028) rotate(89.99999999999994 263 0)"><path d="M0 0 C177.41 0, 354.83 0, 526 0" stroke="#000000" stroke-width="1.5" fill="none" stroke-dasharray="1.5 7"></path></g></g><mask></mask><g stroke-linecap="round"><g transform="translate(631.7026446378208 365.12962062590987) rotate(89.99999999999994 263 0)"><path d="M0 0 C201.42 0, 402.84 0, 526 0" stroke="#000000" stroke-width="1.5" fill="none" stroke-dasharray="1.5 7"></path></g></g><mask></mask><g stroke-linecap="round"><g transform="translate(847.6117355469108 365.1296206259042) rotate(89.99999999999994 263 0)"><path d="M0 0 C132.1 0, 264.21 0, 526 0" stroke="#000000" stroke-width="1.5" fill="none" stroke-dasharray="1.5 7"></path></g></g><mask></mask><g stroke-linecap="round"><g transform="translate(588.5208264560027 365.129620625911) rotate(89.99999999999994 263 0)"><path d="M0 0 C171.02 0, 342.04 0, 526 0" stroke="#000000" stroke-width="1.5" fill="none" stroke-dasharray="1.5 7"></path></g></g><mask></mask><g stroke-linecap="round"><g transform="translate(804.4299173650924 365.12962062590486) rotate(89.99999999999994 263 0)"><path d="M0 0 C154.27 0, 308.54 0, 526 0" stroke="#000000" stroke-width="1.5" fill="none" stroke-dasharray="1.5 7"></path></g></g><mask></mask><g stroke-linecap="round"><g transform="translate(545.3390082741838 365.12962062591214) rotate(89.99999999999994 263 0)"><path d="M0 0 C133.61 0, 267.22 0, 526 0" stroke="#000000" stroke-width="1.5" fill="none" stroke-dasharray="1.5 7"></path></g></g><mask></mask><g stroke-linecap="round"><g transform="translate(761.2480991832748 365.1296206259062) rotate(89.99999999999994 263 0)"><path d="M0 0 C183.2 0, 366.4 0, 526 0" stroke="#000000" stroke-width="1.5" fill="none" stroke-dasharray="1.5 7"></path></g></g><mask></mask><g stroke-linecap="round"><g transform="translate(502.1571900923658 365.1296206259135) rotate(89.99999999999994 263 0)"><path d="M0 0 C166.11 0, 332.23 0, 526 0" stroke="#000000" stroke-width="1.5" fill="none" stroke-dasharray="1.5 7"></path></g></g><mask></mask><g stroke-linecap="round"><g transform="translate(718.0662810014568 365.1296206259076) rotate(89.99999999999994 263 0)"><path d="M0 0 C171.37 0, 342.74 0, 526 0" stroke="#000000" stroke-width="1.5" fill="none" stroke-dasharray="1.5 7"></path></g></g><mask></mask><g stroke-linecap="round"><g transform="translate(766.0662810014559 63.629620625907535) rotate(0 -0.9648145423643655 318.19722553147005)"><path d="M-0.95 -0.07 C-1.34 105.81, -1.55 529.88, -1.83 636.01 M0.76 -1.16 C0.17 104.87, -1.94 531.58, -2.69 637.55" stroke="#000000" stroke-width="2" fill="none"></path></g></g><mask></mask><g stroke-linecap="round"><g transform="translate(692.0662810014559 365.6296206259076) rotate(0 290.71886467222123 1.3864121232927005)"><path d="M-0.07 0.17 C96.98 0.72, 485.72 1.81, 583.01 2.36 M-1.57 -0.78 C95.26 0, 484.59 3.2, 582.07 3.56" stroke="#000000" stroke-width="2" fill="none"></path></g></g><mask></mask><g transform="translate(1285.066281001456 355.6296206259076) rotate(0 25.189979553222656 12.5)"><text x="0" y="0" font-family="Virgil, Segoe UI Emoji" font-size="20px" fill="#000000" text-anchor="start" style="white-space: pre;" direction="ltr" dominant-baseline="text-before-edge">Mass</text></g><g transform="translate(729.0662810014559 35.629620625907535) rotate(0 36.359962463378906 12.5)"><text x="0" y="0" font-family="Virgil, Segoe UI Emoji" font-size="20px" fill="#000000" text-anchor="start" style="white-space: pre;" direction="ltr" dominant-baseline="text-before-edge">Velocity</text></g><g transform="translate(262.50417370311914 10) rotate(0 41.22997283935547 17.5)"><text x="0" y="0" font-family="Virgil, Segoe UI Emoji" font-size="28px" fill="#000000" text-anchor="start" style="white-space: pre;" direction="ltr" dominant-baseline="text-before-edge">Initial</text></g><g transform="translate(975.5041737031191 17) rotate(0 30.65998077392578 17.5)"><text x="0" y="0" font-family="Virgil, Segoe UI Emoji" font-size="28px" fill="#000000" text-anchor="start" style="white-space: pre;" direction="ltr" dominant-baseline="text-before-edge">Final</text></g><g stroke-linecap="round" transform="translate(126.50417370311914 152) rotate(0 44 106.5)"><path d="M0 0 C0 0, 0 0, 0 0 M0 0 C0 0, 0 0, 0 0 M0.6 10.94 C3.46 6.69, 5.54 4.03, 9.05 -0.85 M-0.01 12.64 C3.41 8.44, 6.6 4.18, 10.82 -0.6 M-1.11 23.16 C8.59 16.77, 14.99 5.16, 22.62 -1.49 M1.22 24.92 C6.49 16.19, 12.57 9.39, 22.26 0.08 M1.16 37.97 C8.83 25.92, 20.41 12.86, 32.05 -1.76 M-0.64 36.44 C10.92 23.51, 22.58 10.32, 32.53 0.58 M0.94 48.31 C12.3 34.59, 21.32 22.4, 43.98 0.4 M0.68 49.67 C15.3 32.07, 31.04 13.79, 42.55 0.74 M-0.67 59.73 C16.83 39.84, 34.27 22.04, 53.28 -1.83 M0.92 61.2 C15.19 42.53, 30.74 25.74, 54 -0.37 M-1.6 71.45 C14.86 54.91, 31.03 36.09, 63.3 -2.07 M1.05 72.18 C24.57 44.73, 47.81 17.86, 63.52 -0.25 M1.2 83.42 C24.21 59.65, 45.47 30.57, 72.57 -0.39 M0.72 85.47 C19.88 61.35, 40.2 37.47, 73.84 0.38 M-2.19 97.35 C33.09 62.12, 62.32 24.99, 83.51 -1.01 M-1.21 97.71 C20.55 72.84, 43.14 49.34, 85.98 -0.08 M0.66 108.06 C33.21 73.58, 61.79 38.2, 93.81 3.75 M0.09 110.66 C19.42 88.81, 38.65 65.27, 93.09 3.04 M-0.73 120.28 C37.71 82.37, 72.01 41.84, 91.75 16.84 M0.69 121.04 C20.5 98.04, 40.96 74.69, 93.23 15.93 M-0.42 135.94 C36.71 93.76, 69.18 53.85, 90.05 27.89 M0.62 133.88 C30.56 99.41, 61.6 63.77, 91.73 28.91 M1.92 147.29 C24.83 116.75, 51.42 86.12, 90.81 41.65 M0.39 146.65 C32.45 108.63, 63.85 71.2, 91.52 40.79 M1.14 159.9 C28 123.42, 59.28 88.26, 91.46 50.59 M0.52 158.27 C23.85 131.68, 47.53 105.44, 91.65 52.51 M-0.16 169.99 C34.62 131.12, 71.51 89.32, 92.08 66.09 M-0.73 171.53 C25.25 141.55, 52.25 110.37, 91.99 64.46 M1.15 183.28 C24.74 153.8, 50.05 128.82, 93.46 75.61 M0.9 181.91 C25.66 153.25, 50.52 125.3, 91.8 76.52 M2.05 196.25 C35.49 152.72, 75.44 108.97, 93.07 89.69 M-0.57 195.9 C29.17 163.45, 56.12 132.82, 91.19 89.23 M1.39 207.23 C27.47 175.38, 59.22 140.14, 90.44 103.25 M0.16 206.13 C31.4 171.36, 60.71 136.44, 92.92 102.07 M1.21 217.69 C22.82 192.16, 43.09 170.22, 91.87 114.47 M3.42 215.68 C21.23 196.07, 38.95 173.64, 92.59 112.35 M15.4 214.57 C44.01 177.73, 75.23 142.29, 91.75 126.04 M12.76 216.42 C30.91 195.4, 48.44 176.11, 92.46 125.52 M24.7 216.65 C48.51 191.2, 70.88 165.75, 92.59 136.27 M24.32 216.45 C41.69 194.76, 60.91 172.64, 92.92 138.3 M34.31 216.79 C51.39 195.01, 71.03 176.92, 91.07 152.1 M34.04 216.35 C53.25 191.74, 74.43 169.27, 91.02 150.74 M44.78 215.23 C63.28 198.4, 79.1 176.18, 93.31 160.45 M44.86 215.51 C62.83 197.7, 77.77 177.97, 91.21 161.57 M56.61 213.94 C62.21 205.59, 70.45 197.39, 93.66 173.03 M56.98 216.53 C64.19 206.68, 73.36 197.3, 92.6 174.06 M65.03 216.92 C75.05 204.93, 82.81 197.64, 94.02 185.64 M66.91 216.51 C74.93 207.56, 82.37 199.51, 91.71 185.35 M76.61 216.52 C84.16 211.5, 88.85 202.84, 93.16 200 M77.71 215.46 C82.52 209.97, 87.56 202.29, 92.32 199.31" stroke="#228be6" stroke-width="1" fill="none"></path><path d="M0.06 0.12 C33.81 -1.46, 67.84 -1.18, 86.8 0.61 M-0.87 0.57 C32.63 -0.94, 64.01 0.09, 88.85 0.39 M87.65 1.75 C86.09 45.67, 88.3 88.2, 89.11 214.2 M88.09 0.85 C86.92 42.32, 86.86 85.45, 87.53 213.21 M89.54 213.36 C54.07 214.94, 17.69 214.25, 1.05 214.67 M87.95 212.81 C54.5 212.16, 21.17 212.01, -0.94 213.27 M0.18 211.37 C1.46 129.04, 1.74 44.43, -1.33 1.7 M-0.84 213.1 C0.1 162.32, 0.2 112.86, -0.13 -0.75" stroke="#000000" stroke-width="2" fill="none"></path></g><g stroke-linecap="round" transform="translate(301.50417370311914 360) rotate(0 86 1.5)"><path d="M0 0 C0 0, 0 0, 0 0 M0 0 C0 0, 0 0, 0 0 M4.62 5.96 C6.93 5.22, 8.39 2.64, 9.82 0.68 M4.85 6.63 C6.97 4.58, 9.29 1.18, 10.29 -0.19 M14.91 6.96 C16.86 4.4, 18.16 4.01, 20.47 0.75 M15.23 6.89 C17.66 4.49, 18.91 2.41, 21.38 -0.46 M26.26 5.86 C27.1 4.35, 29.31 3.94, 32.67 0.72 M26 6.9 C27.11 5.2, 28.6 4.08, 31.56 0.1 M35.88 6.46 C37.05 5.06, 38.93 4.37, 43.04 0.26 M36.7 6.37 C38.38 4.61, 40.94 1.69, 42.4 -0.58 M47.24 5.79 C48.13 4.43, 50.01 3.43, 52.67 -1.04 M47.67 6.86 C49.38 4.8, 50.8 2.4, 52.87 0 M57.7 5.89 C59.69 5.34, 59.5 3.52, 62.99 -0.02 M57.45 6.54 C60.45 3.78, 62.74 1.13, 63.44 -0.37 M68.15 7.6 C68.83 6.32, 69.83 3.87, 74.21 0.43 M68.01 6.88 C69.59 5.97, 70.98 3.95, 74.38 -0.39 M78.57 6.54 C80.05 4.08, 83.98 0.97, 84.84 0.19 M78.42 7.32 C80.3 5.33, 82.27 3.22, 85.39 0.13 M89.19 7.43 C90.86 5.1, 94.46 2.52, 95.44 -0.2 M88.72 7.24 C91.16 4.71, 94 1.99, 95.48 0.03 M99.5 6.57 C101.72 3.65, 103.96 0.92, 106.41 0.41 M99.98 7.2 C101.06 5.43, 103.37 3.03, 106.68 -0.36 M110.95 6.7 C111.78 6.14, 113.35 4.09, 115.61 -0.19 M110.14 7.3 C112.42 4.63, 114.61 1.7, 116.41 0.63 M121.45 7.82 C123.32 4.61, 124.59 3.53, 126.06 1.12 M120.98 7.43 C121.82 5.84, 123.79 4.32, 126.81 0.77 M132.35 6.34 C134.33 4.81, 135.98 1.38, 136.74 -0.35 M131.94 6.95 C133.55 4.44, 136.31 1.76, 137.61 0.55 M143.15 6.56 C143.39 5.77, 146.27 2.49, 148.28 0.15 M142.11 6.66 C143.85 5.98, 144.44 3.83, 147.72 -0.14 M152.76 6.53 C155.01 4.97, 156.59 1.28, 158.98 0.57 M152.55 6.71 C154.66 4.69, 156.54 3.47, 159.09 0.62 M163.42 6.24 C164.6 5.78, 165.5 3.3, 169.67 -0.63 M163.63 6.71 C165.61 4.75, 167.79 2.39, 169.14 0.29" stroke="#fa5252" stroke-width="1" fill="none"></path><path d="M1.41 1.35 C34.12 1.03, 70 -1.08, 170.72 -1.91 M0.04 0.7 C53.37 -0.27, 107.75 0.21, 171.88 0.04 M172.25 -0.03 C172.01 1, 171.74 2.19, 171.8 3.12 M171.97 -0.04 C171.84 0.62, 172.02 1.34, 171.9 3.04 M170.06 2.97 C130.3 0.49, 93.52 2.82, -0.33 2.63 M171.04 3.66 C107.77 3.55, 43.69 5.06, -0.19 2.31 M-0.04 2.78 C0.19 2.03, 0.04 1.73, -0.23 0.29 M-0.13 3.08 C0.16 1.87, 0.03 0.59, 0.03 0.11" stroke="#000000" stroke-width="2" fill="none"></path></g><g stroke-linecap="round" transform="translate(809.5041737031191 328) rotate(0 43 18.5)"><path d="M0 0 C0 0, 0 0, 0 0 M0 0 C0 0, 0 0, 0 0 M1.33 10.85 C3.75 7.41, 6.56 6.49, 9.32 -0.37 M0.78 12.5 C2.68 9.9, 4.57 7.04, 10.78 -0.55 M-1.1 23.53 C3.28 17.59, 12.04 11.86, 21.24 -1.92 M0.87 23.55 C4.08 18.67, 9.6 12.69, 22.21 0.47 M-1.82 35.61 C13.11 20.39, 26.76 6.1, 31.5 -1.65 M-0.55 36 C11.82 24.23, 23.05 10.52, 30.94 -0.2 M4.55 40.62 C18.79 24.56, 34.78 11.02, 43.12 0.46 M5.65 41.93 C15.77 30.5, 24.79 19.56, 42.85 -0.99 M15.59 41.97 C29.28 28.13, 45.4 9.57, 53.34 -1.64 M16.11 41.89 C24.41 33.33, 30.85 25.33, 53.02 -0.08 M28.64 43.47 C38.44 31.89, 46.3 20.28, 63.93 0.18 M27.87 41.83 C35.47 32.61, 44.39 22, 63 -0.2 M38.69 41.26 C47.64 32.93, 53.55 20.81, 73.94 -1.5 M36.73 42.13 C48.35 30.7, 57.07 19.86, 74.89 -0.25 M46.47 43.49 C56.93 30.81, 64.8 22.47, 86.32 -1.31 M48.8 41.24 C57.76 30.71, 68.01 18.75, 84.52 0.01 M57.16 42.57 C68.36 32.91, 75.3 21.79, 92.08 6.51 M59.72 41.01 C71.09 28.25, 82.13 15.47, 91.03 5.62 M69.06 41.51 C76.35 37.38, 77.73 30.24, 92.82 15.32 M68.73 41.04 C76.42 34.12, 85.72 23.35, 91.9 16.67 M80.25 42.18 C83.56 39.3, 83.98 37.42, 93.03 28.11 M79.93 41.99 C82.35 38.39, 85.35 35.72, 91.06 28.29" stroke="#228be6" stroke-width="1" fill="none"></path><path d="M1.59 -0.39 C26.44 -1.46, 56.54 0.86, 85.71 -1.46 M0.83 -0.76 C32.6 0.68, 63.02 -0.51, 85.11 0.55 M84.62 0.4 C87.47 15.89, 84.72 30.4, 86.09 36.43 M85.13 -0.77 C85.31 10.96, 84.97 22.5, 85.35 36.84 M84.17 38.48 C55.77 35.95, 24.77 34.76, -0.24 35.23 M85.43 36.11 C54.71 38.26, 21.65 37.89, 0.27 36.71 M-1.99 35.48 C-1 24.56, -1.43 12.98, -0.98 0.52 M0.53 36.13 C1.22 25.89, 0.14 13.44, -0.28 0.37" stroke="#000000" stroke-width="2" fill="none"></path></g><g stroke-linecap="round" transform="translate(981.5041737031191 279) rotate(0 86.5 43.5)"><path d="M0 0 C0 0, 0 0, 0 0 M0 0 C0 0, 0 0, 0 0 M-1.28 12.2 C1.92 9.03, 4.82 6.18, 11.32 1.12 M0.93 12.81 C2.49 9.02, 4.99 5.04, 10.46 0.23 M0.12 23 C6.98 17.21, 11.84 10.4, 22.47 -0.43 M0.91 23.82 C8.67 14.81, 16.24 4.9, 21.92 0.48 M1.04 37.74 C11.99 21.13, 24.46 7.3, 32.78 0.44 M0.3 36.13 C10.7 23.45, 21.81 10.31, 30.99 -0.6 M-1.17 48.79 C7.79 39.47, 17.32 27.21, 42.79 1.36 M-0.54 48.45 C8.83 39.34, 16.77 28.32, 43.36 -0.25 M1.4 59.32 C20.58 38.84, 38.26 17.65, 53.22 -0.98 M0.21 60.82 C10.49 48.23, 23.07 35.26, 52.73 -0.4 M-1.8 74.56 C23.04 44.62, 50.35 15.51, 63.9 1.79 M0.81 72.18 C17.7 53.09, 34.41 32.7, 63.99 -0.25 M2.24 86.91 C15.11 68.48, 32.5 46.97, 74.36 -0.04 M0.41 84.4 C23.29 59.76, 44.54 32.05, 75.38 0.05 M3.35 92.94 C24.98 66.44, 46.21 43.85, 86.58 -1.84 M5.86 91.42 C23.15 71.45, 41.77 50.44, 85.6 -1.26 M15.03 90.81 C36.41 68.09, 51.98 48.4, 93.68 1.58 M14.94 91.57 C40.99 59.96, 68.08 28.74, 96 -1.16 M27.2 91.05 C42.94 71.57, 61.93 49.8, 106.58 0.33 M26.63 92.51 C52.51 63.23, 78.01 33.75, 105.72 -0.55 M37.97 89.83 C69.73 54.29, 100.48 20.72, 118.03 0.49 M37.35 91.43 C66.26 58.91, 96.68 23.74, 117.21 0.84 M48.47 90 C76.7 57.04, 109 17.43, 127.95 1.41 M47.21 92.23 C70.16 66.61, 90.78 41.35, 126 0.84 M57.49 93.49 C82.39 64.8, 103.49 37.17, 136.16 -1.43 M57.22 90.81 C82.64 62.34, 107.81 34.97, 136.9 -0.38 M70.22 91.54 C100.03 57.91, 130.58 22.29, 147.69 0.82 M69.35 91.47 C89.61 67.18, 112.26 43.71, 147.81 0.1 M80.89 93.08 C100.73 69.11, 122.43 41.44, 156.82 1.49 M79.8 92.22 C97.57 72.24, 113.67 52.44, 159.23 1 M89.49 90.97 C119.27 57.38, 144.78 26.9, 169.78 -1.28 M89.06 91.12 C115.03 61.51, 142.07 30.86, 169.35 0.18 M100.44 90.4 C124.1 68.6, 142.33 43.07, 178.13 5.49 M101.13 91.66 C130.1 57.22, 160.18 21.79, 177.01 4.8 M111.3 91.13 C134.55 61.54, 161.37 33.01, 176.08 14.96 M111.62 91.05 C129.69 69.2, 148.64 47.12, 177.42 15.59 M123.4 91.81 C134.29 78.4, 144.22 64.97, 176.99 29.15 M120.98 91.6 C138.78 73.82, 154.82 55.04, 176.17 27.66 M130.61 92.35 C147.06 75.59, 160.74 57.1, 177.72 40.46 M132.58 91.08 C144.8 76.11, 159.04 59.96, 177.97 40.94 M141.97 90.18 C157.13 74.25, 169.73 61.26, 178.46 53.6 M143.92 92.02 C150.67 84.28, 157.38 74.27, 178.05 52.24 M154.39 90.55 C161.66 84.13, 167.5 75.51, 176.83 66.72 M154.75 92.07 C159.79 83.84, 167.21 76.2, 176.68 65.32 M163.4 90.92 C166.59 87.06, 170.92 85.28, 175.24 78.57 M164.27 91.36 C168.87 85.32, 175.03 79.26, 177.84 76.31" stroke="#fa5252" stroke-width="1" fill="none"></path><path d="M0.48 -0.33 C59.3 -2.14, 122.83 0.13, 172.61 -1.23 M-0.77 -0.2 C52.88 1.81, 105.31 1.27, 172.07 0.76 M171.35 1.43 C173.37 28.66, 174.68 56.66, 172.91 87.4 M172.19 0.42 C173.03 31.79, 172.14 64.29, 172.93 86.73 M173.86 87.16 C107.02 88.15, 39.83 86.63, 1.24 88.26 M172.76 87.85 C132.71 85.3, 91.84 84.55, -0.37 86.52 M-0.25 86.75 C-0.94 57.56, 1.54 26.19, 0.4 0.64 M-0.91 87.88 C-0.21 67.5, -0.22 49.1, 0.15 -0.87" stroke="#000000" stroke-width="2" fill="none"></path></g></svg>